<svg width="146" height="149" viewBox="0 0 146 149" fill="none" xmlns="http://www.w3.org/2000/svg">
<path d="M-47.3999 74.1999C-47.3999 51.1332 -43.2666 33.0666 -34.9999 19.9999C-26.5999 6.93324 -12.7332 0.399902 6.60011 0.399902C25.9334 0.399902 39.7334 6.93324 48.0001 19.9999C56.4001 33.0666 60.6001 51.1332 60.6001 74.1999C60.6001 97.3999 56.4001 115.6 48.0001 128.8C39.7334 142 25.9334 148.6 6.60011 148.6C-12.7332 148.6 -26.5999 142 -34.9999 128.8C-43.2666 115.6 -47.3999 97.3999 -47.3999 74.1999ZM33.0001 74.1999C33.0001 64.3332 32.3334 56.0666 31.0001 49.3999C29.8001 42.5999 27.2668 37.0666 23.4001 32.7999C19.6668 28.5332 14.0668 26.3999 6.60011 26.3999C-0.866562 26.3999 -6.53323 28.5332 -10.3999 32.7999C-14.1332 37.0666 -16.6666 42.5999 -17.9999 49.3999C-19.1999 56.0666 -19.7999 64.3332 -19.7999 74.1999C-19.7999 84.3332 -19.1999 92.8666 -17.9999 99.7999C-16.7999 106.6 -14.2666 112.133 -10.3999 116.4C-6.53323 120.533 -0.866562 122.6 6.60011 122.6C14.0668 122.6 19.7334 120.533 23.6001 116.4C27.4668 112.133 30.0001 106.6 31.2001 99.7999C32.4001 92.8666 33.0001 84.3332 33.0001 74.1999Z" fill="white"/>
<path d="M179.897 27.3999H115.097V61.5999C117.897 58.1332 121.897 55.3332 127.097 53.1999C132.297 50.9332 137.83 49.7999 143.697 49.7999C154.364 49.7999 163.097 52.1332 169.897 56.7999C176.697 61.4666 181.63 67.4666 184.697 74.7999C187.764 81.9999 189.297 89.7332 189.297 97.9999C189.297 113.333 184.897 125.667 176.097 135C167.43 144.333 155.03 149 138.897 149C123.697 149 111.564 145.2 102.497 137.6C93.4303 130 88.297 120.067 87.097 107.8H114.297C115.497 113.133 118.164 117.4 122.297 120.6C126.564 123.8 131.964 125.4 138.497 125.4C146.364 125.4 152.297 122.933 156.297 118C160.297 113.067 162.297 106.533 162.297 98.3999C162.297 90.1332 160.23 83.8666 156.097 79.5999C152.097 75.1999 146.164 72.9999 138.297 72.9999C132.697 72.9999 128.03 74.3999 124.297 77.1999C120.564 79.9999 117.897 83.7332 116.297 88.3999H89.497V2.7999H179.897V27.3999Z" fill="white"/>
</svg>
