<svg width="146" height="151" viewBox="0 0 146 151" fill="none" xmlns="http://www.w3.org/2000/svg">
<path d="M-45.3999 75.1998C-45.3999 52.1331 -41.2666 34.0665 -32.9999 20.9998C-24.5999 7.93314 -10.7332 1.39981 8.60011 1.39981C27.9334 1.39981 41.7334 7.93314 50.0001 20.9998C58.4001 34.0665 62.6001 52.1331 62.6001 75.1998C62.6001 98.3998 58.4001 116.6 50.0001 129.8C41.7334 143 27.9334 149.6 8.60011 149.6C-10.7332 149.6 -24.5999 143 -32.9999 129.8C-41.2666 116.6 -45.3999 98.3998 -45.3999 75.1998ZM35.0001 75.1998C35.0001 65.3331 34.3334 57.0665 33.0001 50.3998C31.8001 43.5998 29.2668 38.0665 25.4001 33.7998C21.6668 29.5331 16.0668 27.3998 8.60011 27.3998C1.13344 27.3998 -4.53323 29.5331 -8.3999 33.7998C-12.1332 38.0665 -14.6666 43.5998 -15.9999 50.3998C-17.1999 57.0665 -17.7999 65.3331 -17.7999 75.1998C-17.7999 85.3331 -17.1999 93.8665 -15.9999 100.8C-14.7999 107.6 -12.2666 113.133 -8.3999 117.4C-4.53323 121.533 1.13344 123.6 8.60011 123.6C16.0668 123.6 21.7334 121.533 25.6001 117.4C29.4668 113.133 32.0001 107.6 33.2001 100.8C34.4001 93.8665 35.0001 85.3331 35.0001 75.1998Z" fill="white"/>
<path d="M163.497 40.5998C162.164 34.9998 159.83 30.7998 156.497 27.9998C153.297 25.1998 148.63 23.7998 142.497 23.7998C133.297 23.7998 126.497 27.5331 122.097 34.9998C117.83 42.3331 115.63 54.3331 115.497 70.9998C118.697 65.6665 123.364 61.5331 129.497 58.5998C135.63 55.5331 142.297 53.9998 149.497 53.9998C158.164 53.9998 165.83 55.8665 172.497 59.5998C179.164 63.3331 184.364 68.7998 188.097 75.9998C191.83 83.0665 193.697 91.5998 193.697 101.6C193.697 111.066 191.764 119.533 187.897 127C184.164 134.333 178.63 140.066 171.297 144.2C163.964 148.333 155.23 150.4 145.097 150.4C131.23 150.4 120.297 147.333 112.297 141.2C104.43 135.066 98.897 126.533 95.697 115.6C92.6303 104.533 91.097 90.9332 91.097 74.7998C91.097 50.3998 95.297 31.9998 103.697 19.5998C112.097 7.06648 125.364 0.799805 143.497 0.799805C157.497 0.799805 168.364 4.59981 176.097 12.1998C183.83 19.7998 188.297 29.2665 189.497 40.5998H163.497ZM143.097 76.9998C136.03 76.9998 130.097 79.0665 125.297 83.1998C120.497 87.3332 118.097 93.3331 118.097 101.2C118.097 109.066 120.297 115.266 124.697 119.8C129.23 124.333 135.564 126.6 143.697 126.6C150.897 126.6 156.564 124.4 160.697 120C164.964 115.6 167.097 109.666 167.097 102.2C167.097 94.4665 165.03 88.3331 160.897 83.7998C156.897 79.2665 150.964 76.9998 143.097 76.9998Z" fill="white"/>
</svg>
