<svg width="146" height="149" viewBox="0 0 146 149" fill="none" xmlns="http://www.w3.org/2000/svg">
<path d="M-47.3999 74.2004C-47.3999 51.1337 -43.2666 33.0671 -34.9999 20.0004C-26.5999 6.93372 -12.7332 0.400391 6.60011 0.400391C25.9334 0.400391 39.7334 6.93372 48.0001 20.0004C56.4001 33.0671 60.6001 51.1337 60.6001 74.2004C60.6001 97.4004 56.4001 115.6 48.0001 128.8C39.7334 142 25.9334 148.6 6.60011 148.6C-12.7332 148.6 -26.5999 142 -34.9999 128.8C-43.2666 115.6 -47.3999 97.4004 -47.3999 74.2004ZM33.0001 74.2004C33.0001 64.3337 32.3334 56.0671 31.0001 49.4004C29.8001 42.6004 27.2668 37.0671 23.4001 32.8004C19.6668 28.5337 14.0668 26.4004 6.60011 26.4004C-0.866562 26.4004 -6.53323 28.5337 -10.3999 32.8004C-14.1332 37.0671 -16.6666 42.6004 -17.9999 49.4004C-19.1999 56.0671 -19.7999 64.3337 -19.7999 74.2004C-19.7999 84.3337 -19.1999 92.8671 -17.9999 99.8004C-16.7999 106.6 -14.2666 112.134 -10.3999 116.4C-6.53323 120.534 -0.866562 122.6 6.60011 122.6C14.0668 122.6 19.7334 120.534 23.6001 116.4C27.4668 112.134 30.0001 106.6 31.2001 99.8004C32.4001 92.8671 33.0001 84.3337 33.0001 74.2004Z" fill="white"/>
<path d="M178.697 24.4004L125.497 149H97.097L150.697 27.6004H82.297V3.60039H178.697V24.4004Z" fill="white"/>
</svg>
