<svg width="146" height="153" viewBox="0 0 146 153" fill="none" xmlns="http://www.w3.org/2000/svg">
<path d="M-47.3999 74.2004C-47.3999 51.1337 -43.2666 33.0671 -34.9999 20.0004C-26.5999 6.93372 -12.7332 0.400391 6.60011 0.400391C25.9334 0.400391 39.7334 6.93372 48.0001 20.0004C56.4001 33.0671 60.6001 51.1337 60.6001 74.2004C60.6001 97.4004 56.4001 115.6 48.0001 128.8C39.7334 142 25.9334 148.6 6.60011 148.6C-12.7332 148.6 -26.5999 142 -34.9999 128.8C-43.2666 115.6 -47.3999 97.4004 -47.3999 74.2004ZM33.0001 74.2004C33.0001 64.3337 32.3334 56.0671 31.0001 49.4004C29.8001 42.6004 27.2668 37.0671 23.4001 32.8004C19.6668 28.5337 14.0668 26.4004 6.60011 26.4004C-0.866562 26.4004 -6.53323 28.5337 -10.3999 32.8004C-14.1332 37.0671 -16.6666 42.6004 -17.9999 49.4004C-19.1999 56.0671 -19.7999 64.3337 -19.7999 74.2004C-19.7999 84.3337 -19.1999 92.8671 -17.9999 99.8004C-16.7999 106.6 -14.2666 112.134 -10.3999 116.4C-6.53323 120.534 -0.866562 122.6 6.60011 122.6C14.0668 122.6 19.7334 120.534 23.6001 116.4C27.4668 112.134 30.0001 106.6 31.2001 99.8004C32.4001 92.8671 33.0001 84.3337 33.0001 74.2004Z" fill="white"/>
<path d="M106.297 71.8004C92.9636 64.8671 86.297 54.1337 86.297 39.6004C86.297 32.4004 88.097 25.8671 91.697 20.0004C95.4303 14.0004 100.964 9.26705 108.297 5.80039C115.764 2.20039 124.83 0.400391 135.497 0.400391C146.164 0.400391 155.164 2.20039 162.497 5.80039C169.964 9.26705 175.497 14.0004 179.097 20.0004C182.83 25.8671 184.697 32.4004 184.697 39.6004C184.697 46.9337 182.897 53.4004 179.297 59.0004C175.697 64.4671 170.897 68.7337 164.897 71.8004C172.23 75.0004 177.964 79.6671 182.097 85.8004C186.23 91.9337 188.297 99.2004 188.297 107.6C188.297 116.667 185.964 124.6 181.297 131.4C176.764 138.067 170.497 143.2 162.497 146.8C154.497 150.4 145.497 152.2 135.497 152.2C125.497 152.2 116.497 150.4 108.497 146.8C100.63 143.2 94.3636 138.067 89.697 131.4C85.1636 124.6 82.897 116.667 82.897 107.6C82.897 99.2004 84.9636 91.9337 89.097 85.8004C93.2303 79.5337 98.9636 74.8671 106.297 71.8004ZM157.497 43.6004C157.497 37.0671 155.497 32.0004 151.497 28.4004C147.63 24.8004 142.297 23.0004 135.497 23.0004C128.83 23.0004 123.497 24.8004 119.497 28.4004C115.63 32.0004 113.697 37.1337 113.697 43.8004C113.697 49.8004 115.697 54.6004 119.697 58.2004C123.83 61.8004 129.097 63.6004 135.497 63.6004C141.897 63.6004 147.164 61.8004 151.297 58.2004C155.43 54.4671 157.497 49.6004 157.497 43.6004ZM135.497 84.0004C127.897 84.0004 121.697 85.9337 116.897 89.8004C112.23 93.6671 109.897 99.2004 109.897 106.4C109.897 113.067 112.164 118.534 116.697 122.8C121.364 126.934 127.63 129 135.497 129C143.364 129 149.564 126.867 154.097 122.6C158.63 118.334 160.897 112.934 160.897 106.4C160.897 99.3337 158.564 93.8671 153.897 90.0004C149.23 86.0004 143.097 84.0004 135.497 84.0004Z" fill="white"/>
</svg>
