<svg width="146" height="151" viewBox="0 0 146 151" fill="none" xmlns="http://www.w3.org/2000/svg">
<path d="M-47.3999 75.1998C-47.3999 52.1331 -43.2666 34.0665 -34.9999 20.9998C-26.5999 7.93314 -12.7332 1.39981 6.60011 1.39981C25.9334 1.39981 39.7334 7.93314 48.0001 20.9998C56.4001 34.0665 60.6001 52.1331 60.6001 75.1998C60.6001 98.3998 56.4001 116.6 48.0001 129.8C39.7334 143 25.9334 149.6 6.60011 149.6C-12.7332 149.6 -26.5999 143 -34.9999 129.8C-43.2666 116.6 -47.3999 98.3998 -47.3999 75.1998ZM33.0001 75.1998C33.0001 65.3331 32.3334 57.0665 31.0001 50.3998C29.8001 43.5998 27.2668 38.0665 23.4001 33.7998C19.6668 29.5331 14.0668 27.3998 6.60011 27.3998C-0.866562 27.3998 -6.53323 29.5331 -10.3999 33.7998C-14.1332 38.0665 -16.6666 43.5998 -17.9999 50.3998C-19.1999 57.0665 -19.7999 65.3331 -19.7999 75.1998C-19.7999 85.3331 -19.1999 93.8665 -17.9999 100.8C-16.7999 107.6 -14.2666 113.133 -10.3999 117.4C-6.53323 121.533 -0.866562 123.6 6.60011 123.6C14.0668 123.6 19.7334 121.533 23.6001 117.4C27.4668 113.133 30.0001 107.6 31.2001 100.8C32.4001 93.8665 33.0001 85.3331 33.0001 75.1998Z" fill="white"/>
<path d="M118.297 109C119.364 114.866 121.764 119.4 125.497 122.6C129.364 125.666 134.497 127.2 140.897 127.2C149.164 127.2 155.164 123.8 158.897 117C162.63 110.066 164.497 98.4665 164.497 82.1998C161.43 86.4665 157.097 89.7998 151.497 92.1998C146.03 94.5998 140.097 95.7998 133.697 95.7998C125.164 95.7998 117.43 94.0665 110.497 90.5998C103.697 86.9998 98.297 81.7332 94.297 74.7998C90.297 67.7332 88.297 59.1998 88.297 49.1998C88.297 34.3998 92.697 22.6665 101.497 13.9998C110.297 5.19981 122.297 0.799805 137.497 0.799805C156.43 0.799805 169.764 6.86647 177.497 18.9998C185.364 31.1331 189.297 49.3998 189.297 73.7998C189.297 91.1331 187.764 105.333 184.697 116.4C181.764 127.466 176.63 135.866 169.297 141.6C162.097 147.333 152.23 150.2 139.697 150.2C129.83 150.2 121.43 148.333 114.497 144.6C107.564 140.733 102.23 135.733 98.497 129.6C94.897 123.333 92.8303 116.466 92.297 109H118.297ZM139.497 72.9998C146.43 72.9998 151.897 70.8665 155.897 66.5998C159.897 62.3331 161.897 56.5998 161.897 49.3998C161.897 41.5331 159.764 35.4665 155.497 31.1998C151.364 26.7998 145.697 24.5998 138.497 24.5998C131.297 24.5998 125.564 26.8665 121.297 31.3998C117.164 35.7998 115.097 41.6665 115.097 48.9998C115.097 56.0665 117.097 61.8665 121.097 66.3998C125.23 70.7998 131.364 72.9998 139.497 72.9998Z" fill="white"/>
</svg>
