<svg width="146" height="149" viewBox="0 0 146 149" fill="none" xmlns="http://www.w3.org/2000/svg">
<path d="M-19.8 29.0004V3.20039H28.4V149H-0.400049V29.0004H-19.8Z" fill="white"/>
<path d="M56.0609 74.2004C56.0609 51.1337 60.1942 33.0671 68.4609 20.0004C76.8609 6.93372 90.7276 0.400391 110.061 0.400391C129.394 0.400391 143.194 6.93372 151.461 20.0004C159.861 33.0671 164.061 51.1337 164.061 74.2004C164.061 97.4004 159.861 115.6 151.461 128.8C143.194 142 129.394 148.6 110.061 148.6C90.7276 148.6 76.8609 142 68.4609 128.8C60.1942 115.6 56.0609 97.4004 56.0609 74.2004ZM136.461 74.2004C136.461 64.3337 135.794 56.0671 134.461 49.4004C133.261 42.6004 130.728 37.0671 126.861 32.8004C123.128 28.5337 117.528 26.4004 110.061 26.4004C102.594 26.4004 96.9276 28.5337 93.0609 32.8004C89.3276 37.0671 86.7942 42.6004 85.4609 49.4004C84.2609 56.0671 83.6609 64.3337 83.6609 74.2004C83.6609 84.3337 84.2609 92.8671 85.4609 99.8004C86.6609 106.6 89.1942 112.134 93.0609 116.4C96.9276 120.534 102.594 122.6 110.061 122.6C117.528 122.6 123.194 120.534 127.061 116.4C130.928 112.134 133.461 106.6 134.661 99.8004C135.861 92.8671 136.461 84.3337 136.461 74.2004Z" fill="white"/>
</svg>
