<svg width="278" height="261" viewBox="0 0 278 261" fill="none" xmlns="http://www.w3.org/2000/svg">
    <path d="M49.132 258.715C48.4117 259.529 47.638 260.107 46.811 260.448C45.9839 260.816 44.9835 261 43.8097 261C42.2623 261 41.0351 260.685 40.128 260.054C39.2476 259.398 38.674 258.294 38.4073 256.745L37.6869 252.804C37.3401 250.887 36.9133 249.481 36.4064 248.588C35.9262 247.669 35.1125 247.209 33.9653 247.209H31.3641V256.272C31.3641 257.27 31.4308 257.992 31.5642 258.439C31.7243 258.885 32.0044 259.188 32.4046 259.345C32.8048 259.503 33.4584 259.608 34.3655 259.66V260.448C32.9248 260.37 30.9106 260.33 28.3228 260.33C25.4682 260.33 23.3606 260.37 22 260.448V259.66C22.8804 259.608 23.5207 259.503 23.9209 259.345C24.3477 259.188 24.6278 258.885 24.7612 258.439C24.9213 257.992 25.0013 257.27 25.0013 256.272V236.728C25.0013 235.73 24.9213 235.008 24.7612 234.561C24.6278 234.115 24.3477 233.813 23.9209 233.655C23.5207 233.497 22.8804 233.392 22 233.34V232.552C23.3606 232.63 25.3882 232.67 28.0827 232.67L32.5247 232.63C33.0582 232.604 33.6718 232.591 34.3655 232.591C38.0471 232.591 40.8083 233.182 42.6491 234.364C44.5166 235.546 45.4504 237.24 45.4504 239.447C45.4504 241.312 44.7567 242.954 43.3695 244.372C41.9822 245.791 39.6878 246.684 36.4864 247.052C38.8875 247.262 40.6749 247.774 41.8488 248.588C43.0226 249.403 43.783 250.624 44.1298 252.253L45.0502 256.311C45.2636 257.362 45.5037 258.097 45.7705 258.518C46.064 258.938 46.4642 259.148 46.9711 259.148C47.2912 259.122 47.558 259.043 47.7714 258.912C48.0115 258.78 48.2783 258.557 48.5718 258.242L49.132 258.715ZM33.8452 233.34C33.1249 233.34 32.5914 233.432 32.2445 233.615C31.9244 233.799 31.6976 234.128 31.5642 234.601C31.4308 235.073 31.3641 235.783 31.3641 236.728V246.421H33.0849C35.2725 246.421 36.7665 245.856 37.5669 244.727C38.3939 243.571 38.8074 241.956 38.8074 239.88C38.8074 237.726 38.4206 236.098 37.6469 234.995C36.8732 233.891 35.606 233.34 33.8452 233.34Z" fill="white"/>
    <path d="M72.4376 254.459C72.4376 256.876 72.531 258.872 72.7178 260.448C70.9036 260.37 67.8489 260.33 63.5537 260.33C57.7378 260.33 53.3892 260.37 50.5079 260.448V259.66C51.3883 259.608 52.0286 259.503 52.4288 259.345C52.8556 259.188 53.1358 258.885 53.2692 258.439C53.4292 257.992 53.5093 257.27 53.5093 256.272V236.728C53.5093 235.73 53.4292 235.008 53.2692 234.561C53.1358 234.115 52.8556 233.813 52.4288 233.655C52.0286 233.497 51.3883 233.392 50.5079 233.34V232.552C53.3892 232.63 57.7378 232.67 63.5537 232.67C67.4754 232.67 70.2633 232.63 71.9174 232.552C71.7307 234.732 71.6373 236.676 71.6373 238.383C71.6373 239.539 71.6773 240.432 71.7573 241.063H70.8369C70.4367 238.252 69.7164 236.282 68.676 235.152C67.6355 234.023 66.1682 233.458 64.274 233.458H62.6333C61.8063 233.458 61.206 233.524 60.8325 233.655C60.459 233.786 60.2056 234.049 60.0722 234.443C59.9388 234.811 59.8721 235.415 59.8721 236.255V246.027H61.1526C62.5666 246.027 63.6337 245.515 64.3541 244.49C65.1011 243.466 65.6213 242.245 65.9147 240.826H66.8352C66.7551 241.929 66.7151 243.164 66.7151 244.53V246.421C66.7151 247.761 66.7951 249.626 66.9552 252.016H66.0348C65.4746 248.549 63.8472 246.815 61.1526 246.815H59.8721V256.745C59.8721 257.585 59.9388 258.202 60.0722 258.596C60.2056 258.964 60.459 259.214 60.8325 259.345C61.206 259.476 61.8063 259.542 62.6333 259.542H64.5942C66.4883 259.542 68.009 258.912 69.1562 257.651C70.33 256.364 71.1571 254.197 71.6373 251.149H72.5577C72.4777 252.016 72.4376 253.12 72.4376 254.459Z" fill="white"/>
    <path d="M86.6755 232.039C88.0628 232.039 89.1699 232.171 89.997 232.433C90.824 232.696 91.6644 233.077 92.5181 233.576C92.8116 233.734 93.065 233.865 93.2784 233.97C93.5185 234.075 93.7186 234.128 93.8787 234.128C94.1188 234.128 94.3055 233.996 94.4389 233.734C94.5723 233.445 94.679 232.998 94.7591 232.394H95.6795C95.5461 234.154 95.4794 237.149 95.4794 241.378H94.559C94.4523 239.959 94.1188 238.606 93.5585 237.319C93.025 236.032 92.2513 234.995 91.2375 234.207C90.2504 233.392 89.0899 232.985 87.756 232.985C86.4487 232.985 85.3816 233.353 84.5546 234.088C83.7542 234.798 83.354 235.769 83.354 237.004C83.354 237.923 83.5541 238.725 83.9543 239.408C84.3545 240.091 84.9147 240.721 85.635 241.299C86.3554 241.851 87.4625 242.612 88.9565 243.584L90.2371 244.451C91.8111 245.476 93.0517 246.369 93.9587 247.13C94.8658 247.892 95.5994 248.785 96.1597 249.81C96.7466 250.808 97.0401 251.977 97.0401 253.317C97.0401 254.998 96.5999 256.416 95.7195 257.572C94.8391 258.702 93.6386 259.555 92.1179 260.133C90.6239 260.711 88.9565 261 87.1157 261C85.6217 261 84.3812 260.869 83.3941 260.606C82.4069 260.343 81.4999 259.989 80.6728 259.542C80.0859 259.174 79.6324 258.99 79.3122 258.99C79.0721 258.99 78.8854 259.135 78.752 259.424C78.6186 259.687 78.5119 260.12 78.4319 260.724H77.5114C77.6182 259.069 77.6715 255.523 77.6715 250.086H78.5919C78.7787 253.028 79.4456 255.418 80.5928 257.257C81.74 259.069 83.5008 259.976 85.8751 259.976C87.3158 259.976 88.503 259.595 89.4367 258.833C90.3705 258.071 90.8373 256.981 90.8373 255.563C90.8373 254.091 90.3571 252.831 89.3967 251.78C88.4363 250.729 86.9156 249.547 84.8347 248.234C83.234 247.209 81.9534 246.316 80.993 245.554C80.0326 244.793 79.2455 243.899 78.6319 242.875C78.0183 241.824 77.7115 240.616 77.7115 239.25C77.7115 237.674 78.1117 236.347 78.9121 235.27C79.7391 234.167 80.8329 233.353 82.1935 232.827C83.5541 232.302 85.0481 232.039 86.6755 232.039Z" fill="white"/>
    <path d="M113.207 233.34C112.3 233.392 111.646 233.497 111.246 233.655C110.846 233.813 110.565 234.115 110.405 234.561C110.272 235.008 110.205 235.73 110.205 236.728V256.272C110.205 257.27 110.272 257.992 110.405 258.439C110.565 258.885 110.846 259.188 111.246 259.345C111.646 259.503 112.3 259.608 113.207 259.66V260.448C111.766 260.37 109.752 260.33 107.164 260.33C104.309 260.33 102.202 260.37 100.841 260.448V259.66C101.722 259.608 102.362 259.503 102.762 259.345C103.189 259.188 103.469 258.885 103.602 258.439C103.762 257.992 103.842 257.27 103.842 256.272V236.728C103.842 235.73 103.762 235.008 103.602 234.561C103.469 234.115 103.189 233.813 102.762 233.655C102.362 233.497 101.722 233.392 100.841 233.34V232.552C102.202 232.63 104.309 232.67 107.164 232.67C109.752 232.67 111.766 232.63 113.207 232.552V233.34Z" fill="white"/>
    <path d="M129.053 232.552C134.255 232.552 138.15 233.721 140.738 236.058C143.326 238.37 144.62 241.745 144.62 246.185C144.62 249.048 143.979 251.557 142.699 253.711C141.445 255.838 139.617 257.493 137.216 258.675C134.842 259.857 132.001 260.448 128.693 260.448L126.211 260.409C124.664 260.356 123.544 260.33 122.85 260.33C120.102 260.33 118.048 260.37 116.687 260.448V259.66C117.568 259.608 118.208 259.503 118.608 259.345C119.035 259.188 119.315 258.885 119.448 258.439C119.609 257.992 119.689 257.27 119.689 256.272V236.728C119.689 235.73 119.609 235.008 119.448 234.561C119.315 234.115 119.035 233.813 118.608 233.655C118.208 233.497 117.568 233.392 116.687 233.34V232.552C117.808 232.63 119.422 232.67 121.529 232.67H122.77L124.371 232.63C126.558 232.578 128.119 232.552 129.053 232.552ZM129.013 233.261C128.186 233.261 127.559 233.353 127.132 233.537C126.732 233.721 126.452 234.049 126.291 234.522C126.131 234.995 126.051 235.704 126.051 236.649V256.351C126.051 257.296 126.131 258.005 126.291 258.478C126.452 258.951 126.732 259.279 127.132 259.463C127.559 259.647 128.199 259.739 129.053 259.739C132.281 259.739 134.575 258.636 135.936 256.429C137.296 254.197 137.977 250.834 137.977 246.342C137.977 241.851 137.27 238.554 135.856 236.452C134.468 234.325 132.187 233.261 129.013 233.261Z" fill="white"/>
    <path d="M170.134 254.459C170.134 256.876 170.227 258.872 170.414 260.448C168.6 260.37 165.545 260.33 161.25 260.33C155.434 260.33 151.086 260.37 148.204 260.448V259.66C149.085 259.608 149.725 259.503 150.125 259.345C150.552 259.188 150.832 258.885 150.966 258.439C151.126 257.992 151.206 257.27 151.206 256.272V236.728C151.206 235.73 151.126 235.008 150.966 234.561C150.832 234.115 150.552 233.813 150.125 233.655C149.725 233.497 149.085 233.392 148.204 233.34V232.552C151.086 232.63 155.434 232.67 161.25 232.67C165.172 232.67 167.96 232.63 169.614 232.552C169.427 234.732 169.334 236.676 169.334 238.383C169.334 239.539 169.374 240.432 169.454 241.063H168.533C168.133 238.252 167.413 236.282 166.372 235.152C165.332 234.023 163.865 233.458 161.97 233.458H160.33C159.503 233.458 158.902 233.524 158.529 233.655C158.155 233.786 157.902 234.049 157.769 234.443C157.635 234.811 157.568 235.415 157.568 236.255V246.027H158.849C160.263 246.027 161.33 245.515 162.05 244.49C162.797 243.466 163.318 242.245 163.611 240.826H164.532C164.451 241.929 164.411 243.164 164.411 244.53V246.421C164.411 247.761 164.492 249.626 164.652 252.016H163.731C163.171 248.549 161.544 246.815 158.849 246.815H157.568V256.745C157.568 257.585 157.635 258.202 157.769 258.596C157.902 258.964 158.155 259.214 158.529 259.345C158.902 259.476 159.503 259.542 160.33 259.542H162.291C164.185 259.542 165.705 258.912 166.853 257.651C168.026 256.364 168.853 254.197 169.334 251.149H170.254C170.174 252.016 170.134 253.12 170.134 254.459Z" fill="white"/>
    <path d="M200.739 233.34C199.859 233.471 199.205 233.694 198.778 234.01C198.378 234.325 198.098 234.824 197.938 235.507C197.804 236.19 197.738 237.201 197.738 238.541V260.527L196.777 260.488L195.697 260.527L178.329 238.856V253.986C178.329 255.536 178.409 256.679 178.569 257.414C178.729 258.124 179.076 258.649 179.61 258.99C180.143 259.306 181.01 259.529 182.211 259.66V260.448C181.17 260.37 179.73 260.33 177.889 260.33C176.422 260.33 175.261 260.37 174.407 260.448V259.66C175.288 259.529 175.928 259.306 176.328 258.99C176.755 258.675 177.035 258.176 177.169 257.493C177.329 256.81 177.409 255.799 177.409 254.459V236.728C177.409 235.73 177.329 235.008 177.169 234.561C177.035 234.115 176.755 233.813 176.328 233.655C175.928 233.497 175.288 233.392 174.407 233.34V232.552C175.261 232.63 176.422 232.67 177.889 232.67C179.223 232.67 180.37 232.63 181.331 232.552L196.817 251.346V239.014C196.817 237.464 196.737 236.334 196.577 235.625C196.417 234.889 196.07 234.364 195.537 234.049C195.003 233.707 194.136 233.471 192.936 233.34V232.552C193.976 232.63 195.417 232.67 197.258 232.67C198.752 232.67 199.912 232.63 200.739 232.552V233.34Z" fill="white"/>
    <path d="M218.301 232C219.901 232 221.262 232.223 222.382 232.67C223.503 233.116 224.597 233.747 225.664 234.561C225.957 234.798 226.211 234.916 226.424 234.916C226.958 234.916 227.305 234.128 227.465 232.552H228.385C228.278 234.338 228.225 237.516 228.225 242.087H227.305C227.064 240.143 226.744 238.659 226.344 237.635C225.944 236.61 225.264 235.717 224.303 234.955C223.636 234.325 222.863 233.852 221.982 233.537C221.102 233.195 220.181 233.024 219.221 233.024C216.527 233.024 214.526 234.325 213.218 236.925C211.911 239.5 211.258 242.717 211.258 246.579C211.258 250.414 211.938 253.619 213.298 256.193C214.659 258.767 216.687 260.054 219.381 260.054C220.288 260.054 221.182 259.897 222.062 259.582C222.969 259.24 223.73 258.754 224.343 258.124C225.33 257.388 226.011 256.469 226.384 255.365C226.784 254.262 227.091 252.647 227.305 250.519H228.225C228.225 255.274 228.278 258.583 228.385 260.448H227.465C227.385 259.608 227.265 259.017 227.105 258.675C226.971 258.308 226.771 258.124 226.504 258.124C226.291 258.124 226.011 258.229 225.664 258.439C224.463 259.279 223.316 259.923 222.222 260.37C221.129 260.79 219.808 261 218.261 261C215.433 261 212.952 260.435 210.817 259.306C208.71 258.176 207.069 256.548 205.895 254.42C204.721 252.266 204.134 249.705 204.134 246.736C204.134 243.847 204.735 241.286 205.935 239.053C207.136 236.82 208.803 235.087 210.937 233.852C213.098 232.617 215.553 232 218.301 232Z" fill="white"/>
    <path d="M254.72 254.459C254.72 256.876 254.813 258.872 255 260.448C253.186 260.37 250.131 260.33 245.836 260.33C240.02 260.33 235.671 260.37 232.79 260.448V259.66C233.671 259.608 234.311 259.503 234.711 259.345C235.138 259.188 235.418 258.885 235.551 258.439C235.711 257.992 235.792 257.27 235.792 256.272V236.728C235.792 235.73 235.711 235.008 235.551 234.561C235.418 234.115 235.138 233.813 234.711 233.655C234.311 233.497 233.671 233.392 232.79 233.34V232.552C235.671 232.63 240.02 232.67 245.836 232.67C249.758 232.67 252.546 232.63 254.2 232.552C254.013 234.732 253.92 236.676 253.92 238.383C253.92 239.539 253.96 240.432 254.04 241.063H253.119C252.719 238.252 251.999 236.282 250.958 235.152C249.918 234.023 248.45 233.458 246.556 233.458H244.916C244.089 233.458 243.488 233.524 243.115 233.655C242.741 233.786 242.488 234.049 242.354 234.443C242.221 234.811 242.154 235.415 242.154 236.255V246.027H243.435C244.849 246.027 245.916 245.515 246.636 244.49C247.383 243.466 247.904 242.245 248.197 240.826H249.117C249.037 241.929 248.997 243.164 248.997 244.53V246.421C248.997 247.761 249.077 249.626 249.237 252.016H248.317C247.757 248.549 246.129 246.815 243.435 246.815H242.154V256.745C242.154 257.585 242.221 258.202 242.354 258.596C242.488 258.964 242.741 259.214 243.115 259.345C243.488 259.476 244.089 259.542 244.916 259.542H246.876C248.771 259.542 250.291 258.912 251.438 257.651C252.612 256.364 253.439 254.197 253.92 251.149H254.84C254.76 252.016 254.72 253.12 254.72 254.459Z" fill="white"/>
    <path fill-rule="evenodd" clip-rule="evenodd" d="M119.062 88.4737H158.938V68.6413L152.836 72.7494C155.39 74.8743 157.093 79.6908 152.836 81.674C150.282 82.6656 147.443 82.524 145.457 81.674C144.463 81.249 143.754 80.6824 143.186 79.9741C142.619 79.1241 142.193 78.1325 142.335 77.1409C142.477 76.0076 142.902 74.7327 144.18 73.4577L139.922 65.3831L133.536 73.3161C134.814 75.1577 136.942 79.4075 130.982 81.674C128.995 82.3823 127.15 82.524 125.731 82.2407C124.454 81.9573 123.603 81.3907 122.893 80.6824C122.184 79.9741 121.616 78.9825 121.616 77.9909C121.474 76.9992 121.616 76.1493 122.184 75.2993C122.751 74.166 123.319 73.4577 123.887 72.8911L119.204 68.2163V88.4737H119.062ZM160.357 91.3069H116.082V61.1333L127.15 72.0411C127.15 72.0411 125.731 74.3077 124.454 76.4326C124.312 76.7159 124.17 77.1409 124.312 77.5659C124.312 77.9909 124.596 78.2742 124.88 78.5575C125.164 78.8408 125.731 79.1241 126.299 79.2658C127.292 79.4075 128.428 79.4075 129.989 78.8408C133.678 77.4242 130.556 74.166 130.556 74.0244L129.705 73.1744L140.348 60L147.585 74.0244L146.734 74.7327C145.599 75.7243 145.173 76.5743 145.031 77.2826C145.031 77.5659 145.173 77.9909 145.315 78.2742C145.599 78.5575 146.024 78.9825 146.592 79.1241C148.011 79.6908 149.856 79.8324 151.843 79.1241C154.965 77.9909 149.288 72.4661 149.288 72.3244L161.918 63.2582V91.3069H160.357Z" fill="white"/>
    <path fill-rule="evenodd" clip-rule="evenodd" d="M98.4849 98.1067V156.046C98.9106 158.312 105.864 188.628 138.645 202.085C171.426 188.628 178.38 158.312 178.805 156.046V98.1067C168.446 93.5735 153.546 91.307 138.645 91.307C123.745 91.307 108.844 93.5735 98.4849 98.1067ZM96.2144 156.329V96.4067L96.9239 96.1234C107.567 91.307 123.035 88.8987 138.645 88.8987C154.113 88.8987 169.723 91.307 180.366 96.1234L181.076 96.4067V156.329V156.471C181.076 156.612 174.548 190.328 139.071 204.635L138.645 204.777L138.219 204.635C102.742 190.186 96.2144 156.612 96.2144 156.471V156.329Z" fill="white"/>
    <path fill-rule="evenodd" clip-rule="evenodd" d="M48.391 85.0739H48.5329H61.8724L62.1562 85.3572C62.1562 85.3572 67.4068 89.607 70.245 90.3153C73.367 91.0236 78.05 92.0152 78.05 92.0152L79.0434 92.1569L78.9015 93.1485C78.9015 93.1485 78.3338 98.6732 75.7795 100.656L75.4957 100.94H75.0699C75.0699 100.94 72.9413 100.94 70.8127 102.073C71.0965 103.065 71.6641 104.056 72.9413 104.623L73.6508 104.906V116.947L75.9214 119.922L86.8484 108.589V103.206L97.3497 96.1234V116.664L76.7728 136.78V143.296V156.329L85.855 165.395H87.9837L94.6534 160.72V179.845H84.0102L72.3737 168.937C72.5156 177.72 66.8392 185.794 64.9944 188.203L71.0965 195.994H76.3471L83.0169 205.91H65.8458L51.0873 188.061L51.3711 187.494C55.6284 177.153 50.0939 169.362 47.6815 166.529C46.5462 169.078 46.1205 172.337 46.6881 176.586L46.83 177.153L31.0781 189.478V195.286H35.4773L41.8632 205.91H21.2864L20.293 183.953L28.8076 175.453V158.029C19.1577 146.413 9.50791 134.938 0 123.322L0.141909 122.755C0.141909 122.755 0.993364 117.656 7.23737 117.656H7.805L26.8208 139.613C27.3885 137.488 27.8142 133.38 25.2598 128.564L6.81164 107.173L2.55436 102.215L3.122 93.8568L11.6365 104.34V109.439L26.9627 127.289V127.43C31.3619 135.788 28.098 142.305 28.098 142.305L27.3885 143.863L6.66973 120.064C3.68964 120.206 2.69627 122.047 2.41246 122.897L29.9428 156.046C34.6258 151.088 37.3221 146.129 38.7412 140.746C40.1603 135.08 40.1603 128.989 39.3088 122.047L36.4706 119.214V104.198V103.773V90.032L40.1603 84.9322H46.2624H48.391V85.0739ZM76.7728 121.906V132.813V133.663L94.9372 115.531V100.09L88.977 104.198V109.298L76.7728 121.906ZM70.1031 166.67L61.3048 158.312C59.4599 158.454 52.5064 159.162 48.8167 164.404C51.2292 166.812 58.1827 175.595 53.6417 187.494L66.9811 203.502H78.9015L75.2119 198.26H70.1031L62.2981 188.203L62.8658 187.494C62.8658 187.636 71.806 177.011 70.1031 166.67ZM76.7728 159.587L74.7861 157.604L41.5794 124.455C42.147 130.547 42.0051 136.072 40.7279 141.171C39.1669 147.121 36.1868 152.504 30.9362 158.029V176.445L22.5636 184.803L23.415 203.644H37.8897L34.2001 197.552H28.6656V188.344L44.2757 176.161C41.8632 156.046 61.5886 156.046 61.5886 156.046H62.0143L84.8617 177.578H92.3829V164.97L88.6932 167.52H84.8617C82.3073 164.97 79.4691 162.279 76.7728 159.587ZM74.5023 144.005C62.44 131.538 50.5197 119.072 38.4574 106.465V118.081L74.5023 154.062V144.005ZM68.9678 103.49C67.2649 105.331 66.6973 106.89 66.4135 107.598L71.2384 113.973V106.323C70.1031 105.473 69.3936 104.481 68.9678 103.49ZM74.5023 133.38C62.44 119.781 50.6616 106.181 38.5993 92.5818V103.348L74.6442 140.888V133.38H74.5023ZM64.2848 108.448L53.7836 94.9901C45.269 94.7068 42.0051 90.4569 40.8698 88.0487L39.1669 90.032L74.5023 130.263V122.047L64.2848 108.448ZM51.9387 92.5818L47.8234 87.3404H42.9985C43.8499 88.8987 46.1205 91.8735 51.9387 92.5818ZM61.0209 87.1988H50.5197L64.7106 105.473C65.1363 104.481 65.9878 103.206 67.123 101.931C69.5355 99.2399 73.0832 98.8149 74.3604 98.6732C75.4957 97.54 76.0633 95.1317 76.3471 93.8568C74.7861 93.5735 71.806 92.8652 69.5355 92.4402C66.8392 91.7319 62.2981 88.1904 61.0209 87.1988Z" fill="white"/>
    <path fill-rule="evenodd" clip-rule="evenodd" d="M229.609 85.3572H229.467H216.128L215.844 85.6406C215.844 85.6406 210.593 89.8904 207.755 90.5987C204.633 91.307 199.95 92.2986 199.95 92.2986L198.957 92.4403L199.099 93.4319C199.099 93.4319 199.666 98.9566 202.221 100.94L202.504 101.223H202.93C202.93 101.223 205.059 101.223 207.187 102.356C206.904 103.348 206.336 104.34 205.059 104.906L204.349 105.19V117.231L202.079 120.206L191.152 108.873V103.49L180.65 96.4067V116.947L201.085 137.347V143.863V156.896L192.003 165.962H189.874L183.205 161.287V180.411H193.848L205.484 169.503C205.343 178.286 211.019 186.361 212.864 188.769L206.762 196.561H201.511L194.841 206.477H211.87L226.771 188.628L226.487 188.061C222.23 177.72 227.764 169.928 230.177 167.095C231.312 169.645 231.88 172.903 231.17 177.153L231.312 177.578L247.064 189.903V195.711H242.523L236.137 206.335H256.714L257.707 184.378L249.193 175.878V158.312C258.7 146.838 268.35 135.222 277.858 123.747L277.716 123.181C277.716 123.181 276.865 118.081 270.621 118.081H270.053L251.037 140.038C250.47 137.913 250.044 133.805 252.598 128.989L271.047 107.598L275.304 102.781L274.736 94.4235L266.222 104.906V110.006L250.754 127.997V128.139C246.354 136.497 249.618 143.013 249.618 143.013L250.328 144.571L271.047 120.772C274.027 120.914 275.02 122.756 275.304 123.606L248.057 156.329C243.374 151.371 240.678 146.413 239.259 141.03C237.84 135.363 237.84 129.272 238.691 122.331L241.529 119.497V104.623V104.198V90.457L237.84 85.3572H231.738H229.609ZM201.085 122.331V133.238V134.088L182.921 115.956V100.515L188.881 104.623V109.723L201.085 122.331ZM207.897 167.095L216.695 158.737C218.54 158.879 225.352 159.587 229.183 164.829C226.771 167.237 219.817 176.02 224.358 187.919L211.019 203.927H199.099L202.788 198.544H207.897L215.702 188.486L215.134 187.778C215.134 187.919 206.194 177.436 207.897 167.095ZM201.085 159.871L203.072 157.887L236.137 124.88C235.569 130.972 235.711 136.497 236.988 141.596C238.549 147.546 241.529 152.929 246.78 158.454V176.87L255.153 185.228L254.301 204.069H239.827L243.516 197.977H249.051V188.911L233.583 176.728C235.995 156.612 216.27 156.612 216.27 156.612H215.844L192.996 178.145H185.475V165.537L189.165 168.087H192.996C195.693 165.395 198.389 162.704 201.085 159.871ZM203.356 144.43C215.418 131.963 227.339 119.497 239.401 106.89V118.506L203.356 154.487V144.43ZM209.032 103.773C210.735 105.615 211.303 107.173 211.587 107.881L206.762 114.256V106.606C207.897 105.898 208.607 104.906 209.032 103.773ZM203.356 133.805C215.418 120.206 227.339 106.606 239.401 93.0069V103.773L203.356 141.313V133.805ZM213.715 108.731L224.217 95.2735C232.731 94.9901 235.995 90.7403 237.13 88.3321L238.833 90.3154L203.498 130.547V122.331L213.715 108.731ZM225.919 92.8652L230.035 87.6238H234.86C234.008 89.3237 231.738 92.2986 225.919 92.8652ZM216.837 87.6238H227.339L213.148 105.898C212.722 104.906 211.87 103.631 210.735 102.356C208.323 99.6649 204.775 99.24 203.498 99.0983C202.362 97.965 201.795 95.5568 201.511 94.2818C203.072 93.9985 206.052 93.2902 208.323 92.8652C211.019 92.0153 215.702 88.6154 216.837 87.6238Z" fill="white"/>
    <path d="M129.167 149C127.22 149 126.322 149.548 125.185 150.242L125.185 150.242C124.165 150.864 122.947 151.607 121 151.887L121 148.827C121.916 148.612 122.563 148.217 123.315 147.758C124.599 146.975 126.197 146 129.167 146C132.137 146 133.735 146.975 135.019 147.758L135.019 147.758C136.156 148.452 137.054 149 139 149C140.947 149 141.845 148.452 142.982 147.758L142.982 147.758C144.266 146.975 145.864 146 148.833 146C151.803 146 153.401 146.975 154.685 147.758L154.685 147.758C155.437 148.217 156.085 148.612 157 148.827L157 151.887C155.053 151.607 153.835 150.864 152.815 150.242L152.815 150.242C151.678 149.548 150.78 149 148.833 149C146.887 149 145.989 149.548 144.852 150.242L144.852 150.242C143.568 151.025 141.97 152 139 152C136.03 152 134.432 151.025 133.148 150.242C132.012 149.548 131.114 149 129.167 149Z" fill="white"/>
    <path d="M129.167 141C127.22 141 126.322 141.548 125.185 142.242L125.185 142.242C124.165 142.864 122.947 143.607 121 143.887L121 140.827C121.916 140.612 122.563 140.217 123.315 139.758C124.599 138.975 126.197 138 129.167 138C132.137 138 133.735 138.975 135.019 139.758L135.019 139.758C136.156 140.452 137.054 141 139 141C140.947 141 141.845 140.452 142.982 139.758L142.982 139.758C144.266 138.975 145.864 138 148.833 138C151.803 138 153.401 138.975 154.685 139.758L154.685 139.758C155.437 140.217 156.085 140.612 157 140.827L157 143.887C155.053 143.607 153.835 142.864 152.815 142.242L152.815 142.242C151.678 141.548 150.78 141 148.833 141C146.887 141 145.989 141.548 144.852 142.242L144.852 142.242C143.568 143.025 141.97 144 139 144C136.03 144 134.432 143.025 133.148 142.242C132.012 141.548 131.114 141 129.167 141Z" fill="white"/>
    <path d="M129.167 132.5C127.22 132.5 126.322 133.139 125.185 133.948L125.185 133.948C124.165 134.675 122.947 135.542 121 135.868L121 132.298C121.916 132.048 122.563 131.587 123.315 131.052C124.599 130.137 126.197 129 129.167 129C132.137 129 133.735 130.137 135.019 131.052L135.019 131.052C136.156 131.861 137.054 132.5 139 132.5C140.947 132.5 141.845 131.861 142.982 131.052L142.982 131.051C144.266 130.137 145.864 129 148.833 129C151.803 129 153.401 130.137 154.685 131.051L154.685 131.051C155.437 131.587 156.085 132.048 157 132.298L157 135.868C155.053 135.542 153.835 134.675 152.815 133.948L152.815 133.948C151.678 133.139 150.78 132.5 148.833 132.5C146.887 132.5 145.989 133.139 144.852 133.948L144.852 133.949C143.568 134.863 141.97 136 139 136C136.03 136 134.432 134.862 133.148 133.949C132.012 133.139 131.114 132.5 129.167 132.5Z" fill="white"/>
    <g clip-path="url(#clip0)">
        <path d="M53.9532 31.2954C55.043 31.6283 56.0414 32.212 56.8695 33.0005C57.6976 33.7889 58.3328 34.7606 58.7251 35.8388C59.2454 37.1407 59.4241 38.5559 59.2439 39.9478C59.0638 41.3396 58.5309 42.6611 57.6966 43.7846C55.9826 46.1566 53.1064 48.0618 49.0682 49.5002C48.1631 49.8217 47.4021 50.0811 46.7645 50.2678C44.7076 50.9593 42.6953 51.6509 40.7276 52.3424C37.5121 53.4419 35.1296 54.3202 33.5801 54.9772L33.251 54.0436C34.0087 53.7698 34.7225 53.3854 35.3695 52.9025C35.5748 52.7309 35.7369 52.5126 35.8424 52.2656C35.9478 52.0186 35.9937 51.7498 35.9763 51.4814C35.9042 50.5475 35.6998 49.6288 35.3695 48.7533L27.2244 25.4658C26.9693 24.5852 26.5955 23.744 26.1137 22.9659C25.9594 22.7462 25.7563 22.5662 25.5205 22.44C25.2848 22.3139 25.023 22.2453 24.7562 22.2398C23.9447 22.2651 23.1411 22.4083 22.3702 22.665L22 21.7211C23.6181 21.2509 25.9937 20.4625 29.127 19.356L34.2691 17.4785C34.8862 17.2296 35.5855 16.9599 36.398 16.6694C40.1209 15.352 43.2061 15.0097 45.6538 15.6321C46.7597 15.8642 47.7863 16.3834 48.6323 17.1384C49.4782 17.8934 50.1141 18.858 50.4771 19.9369C50.7867 20.9086 50.8944 21.9341 50.7936 22.9497C50.6927 23.9652 50.3854 24.9488 49.8909 25.8392C48.5561 28.2792 46.5194 30.2539 44.0494 31.5029V31.5963C48.218 30.5105 51.5192 30.4103 53.9532 31.2954ZM34.4131 18.7544C34.2494 18.9571 34.1284 19.1913 34.0577 19.4429C33.9869 19.6944 33.9679 19.9578 34.0017 20.217C34.1036 21.1077 34.3143 21.9822 34.6291 22.8206L38.3314 33.4323L40.3368 32.7269C42.3525 32.0354 43.5215 30.839 43.8438 29.1378C44.1287 27.1093 43.8768 25.0409 43.1136 23.1422C42.6026 21.2773 41.5921 19.5904 40.1928 18.2669C39.616 17.8165 38.9293 17.5316 38.2053 17.4421C37.4813 17.3526 36.7467 17.462 36.0791 17.7586C35.4458 17.949 34.8673 18.2906 34.3925 18.7544H34.4131ZM50.9296 38.3802C50.648 37.3373 50.1652 36.3606 49.5087 35.5062C48.8522 34.6518 48.035 33.9364 47.1039 33.4012C45.4515 32.5713 43.2713 32.6266 40.5631 33.5671L38.6091 34.2518L42.7228 46.1393C42.9872 46.9852 43.357 47.7938 43.8232 48.5459C43.9674 48.7663 44.1585 48.9514 44.3827 49.0878C44.6069 49.2242 44.8584 49.3084 45.119 49.3342C45.867 49.3342 46.6078 49.1862 47.2993 48.8985C51.6186 47.3772 52.8288 43.8711 50.9296 38.3802Z" fill="white"/>
        <path d="M94.627 36.5028C95.1431 36.8472 95.7584 37.0079 96.3753 36.9593L96.5707 37.9447C94.6064 38.2248 92.1485 38.6604 89.1764 39.2517C85.8854 39.9018 83.4412 40.4342 81.8437 40.8492L81.6483 39.8741C82.5412 39.6992 83.3972 39.3693 84.1782 38.899C84.406 38.7425 84.5812 38.5197 84.6804 38.2602C84.7796 38.0008 84.7981 37.7171 84.7336 37.4468C84.5207 36.6652 84.1725 35.9278 83.7051 35.2685L79.2418 27.831L68.6798 29.9056L68.0731 33.5258C67.6486 35.3925 67.5477 37.3192 67.7748 39.2206C67.819 39.699 67.9828 40.1583 68.2508 40.5556C68.5187 40.9529 68.8822 41.2752 69.3072 41.4923C70.4019 41.8411 71.5675 41.8983 72.6907 41.6583L72.8758 42.6333C70.6647 42.9756 68.649 43.318 66.839 43.6706C65.358 43.9611 64.1445 44.2515 63.188 44.542L63.0029 43.5669C64.525 42.9514 65.5809 40.9667 66.1705 37.6128L71.652 6.84625C72.0222 6.84625 72.5879 6.7114 73.3592 6.5558C74.1305 6.40021 74.6858 6.27573 74.9944 6.18237L92.7141 34.4386C93.1843 35.2671 93.8392 35.9738 94.627 36.5028ZM78.6658 26.8663L71.3023 14.626L68.8341 28.8164L78.6658 26.8663Z" fill="white"/>
        <path d="M122.467 0.497925L122.549 1.53523C121.099 2.29247 119.679 4.34633 118.312 7.69683L113.53 19.7088L114.496 31.2748C114.54 32.193 114.71 33.1006 115 33.9718C115.093 34.2181 115.24 34.4397 115.431 34.6195C115.622 34.7993 115.851 34.9326 116.101 35.0091C116.903 35.1907 117.728 35.2536 118.548 35.1958L118.63 36.2331C116.848 36.2815 114.318 36.4475 111.041 36.731C107.534 37.0319 105.004 37.3016 103.43 37.5401L103.348 36.5028C104.157 36.4159 104.95 36.2133 105.703 35.9012C105.945 35.7845 106.155 35.6118 106.318 35.3973C106.481 35.1828 106.591 34.9324 106.639 34.6668C106.767 33.755 106.767 32.8297 106.639 31.9179L105.929 23.5365L94.9459 6.70102C93.7735 4.9376 92.745 4.08701 91.8606 4.15962L91.7783 3.12231C93.7216 3.14447 95.6647 3.06137 97.5992 2.87336C100.684 2.61403 103.77 2.26135 106.855 1.83605L106.948 2.87336C106.024 2.92843 105.113 3.11707 104.243 3.4335C103.585 3.7032 103.286 4.11812 103.338 4.68864C103.397 5.06431 103.546 5.42006 103.77 5.72595L112.47 19.6259L115.586 11.5764C116.506 9.59788 116.997 7.44422 117.026 5.25916C117.028 4.79256 116.913 4.33301 116.692 3.92318C116.471 3.51334 116.151 3.1665 115.761 2.91485C114.804 2.44146 113.738 2.24061 112.676 2.33396L112.594 1.29665C114.836 1.20329 116.882 1.07882 118.764 0.923221C120.255 0.829863 121.49 0.674267 122.467 0.497925Z" fill="white"/>
        <path d="M146.1 0.570544C147.181 0.95382 148.216 1.45835 149.186 2.07464C149.546 2.27173 149.864 2.44807 150.142 2.58292C150.363 2.7008 150.603 2.77476 150.852 2.80075C151.008 2.79572 151.159 2.74362 151.285 2.65117C151.412 2.55872 151.508 2.43017 151.561 2.2821C151.778 1.75155 151.92 1.19284 151.983 0.622409H153.114C152.909 2.84224 152.761 6.62496 152.672 11.9705H151.541C151.45 10.1916 151.071 8.4396 150.42 6.78401C149.832 5.23274 148.87 3.85326 147.622 2.76963C146.425 1.76316 144.913 1.21575 143.354 1.22405C141.922 1.13344 140.51 1.59717 139.405 2.52068C138.886 2.98193 138.472 3.55263 138.195 4.1925C137.918 4.83236 137.783 5.5258 137.801 6.22386C137.761 7.28387 137.998 8.33586 138.49 9.27354C139.023 10.1967 139.72 11.0125 140.547 11.6801C141.418 12.3716 142.765 13.364 144.589 14.6572L146.152 15.7775C147.727 16.8459 149.241 18.0026 150.687 19.2421C151.774 20.2092 152.679 21.3651 153.361 22.6548C154.084 24.0294 154.438 25.5705 154.389 27.1256C154.401 29.0467 153.775 30.9164 152.61 32.4366C151.444 33.8977 149.894 34.9978 148.137 35.6108C146.161 36.3397 144.069 36.6915 141.966 36.6481C140.419 36.6545 138.877 36.4592 137.379 36.0672C136.217 35.7362 135.099 35.2661 134.047 34.6668C133.566 34.2789 132.991 34.0282 132.381 33.9407C132.227 33.9442 132.078 33.9946 131.953 34.0853C131.828 34.1761 131.734 34.3029 131.682 34.449C131.461 34.9783 131.319 35.5376 131.26 36.1087H130.129C130.293 34.0341 130.434 29.5563 130.551 22.6755H131.692C131.714 25.8453 132.505 28.9613 133.996 31.752C134.652 32.8675 135.594 33.7833 136.724 34.4023C137.854 35.0214 139.128 35.3207 140.413 35.2684C142.002 35.3593 143.571 34.8736 144.835 33.8992C145.427 33.4014 145.897 32.7729 146.209 32.0624C146.521 31.3518 146.667 30.5783 146.635 29.8018C146.699 28.0379 146.092 26.316 144.938 24.9887C143.288 23.2311 141.422 21.6938 139.385 20.4142C137.431 19.0865 135.878 17.9247 134.705 16.9496C133.55 15.9842 132.584 14.8091 131.857 13.485C131.111 12.0816 130.756 10.501 130.828 8.91049C130.802 7.10316 131.362 5.33667 132.422 3.87955C133.475 2.50023 134.905 1.46176 136.536 0.892109C138.29 0.257226 140.145 -0.0452167 142.007 2.48919e-05C143.392 -0.0134246 144.771 0.178809 146.1 0.570544Z" fill="white"/>
        <path d="M178.207 4.14919C177.389 4.07722 176.564 4.12614 175.76 4.29441C175.508 4.37164 175.276 4.50495 175.082 4.68448C174.888 4.86402 174.737 5.0852 174.639 5.33172C174.336 6.20146 174.153 7.10886 174.094 8.02872L171.625 32.6025C171.498 33.5143 171.498 34.4396 171.625 35.3514C171.669 35.6143 171.773 35.8635 171.928 36.0794C172.083 36.2953 172.286 36.4721 172.52 36.5961C173.272 36.9294 174.069 37.1462 174.885 37.2393L174.783 38.2766C173.024 37.9965 170.556 37.6853 167.378 37.3637C163.881 37.0007 161.29 36.7932 159.603 36.7206L159.706 35.6833C160.514 35.7537 161.328 35.7048 162.123 35.5381C162.381 35.4664 162.619 35.3355 162.819 35.1555C163.019 34.9756 163.175 34.7515 163.274 34.5008C163.583 33.6328 163.767 32.7245 163.82 31.8038L166.288 7.22999C166.416 6.31823 166.416 5.39289 166.288 4.48113C166.244 4.21536 166.138 3.96392 165.979 3.74751C165.82 3.5311 165.612 3.35591 165.372 3.23636C164.629 2.91097 163.843 2.69441 163.038 2.59323L163.131 1.60779C164.797 1.87749 167.378 2.19214 170.875 2.55174C174.052 2.8733 176.531 3.08076 178.31 3.15337L178.207 4.14919Z" fill="white"/>
        <path d="M215.076 14.4497C217.592 17.9904 218.278 22.5061 217.133 27.9969C216.527 31.2549 215.06 34.2871 212.885 36.7725C210.77 39.1099 208.014 40.76 204.967 41.513C201.428 42.3706 197.738 42.3706 194.199 41.513L191.217 40.818C189.355 40.3616 188.018 40.0297 187.175 39.8533C183.863 39.1376 181.375 38.6604 179.708 38.4011L179.914 37.426C180.713 37.5841 181.531 37.6225 182.341 37.5401C182.606 37.5011 182.859 37.3988 183.077 37.2419C183.295 37.0849 183.473 36.8778 183.596 36.6377C183.989 35.8091 184.266 34.9293 184.419 34.0237L189.561 9.86479C189.789 8.97079 189.893 8.04914 189.869 7.1263C189.853 6.85689 189.774 6.59523 189.638 6.36267C189.502 6.13011 189.313 5.93325 189.088 5.78817C188.379 5.38455 187.617 5.08421 186.825 4.89609L187.031 3.92102C188.402 4.3152 190.339 4.78199 192.841 5.32138L194.343 5.64295L196.287 6.01638C198.94 6.51429 200.822 6.88772 201.953 7.1263C208.186 8.46097 212.56 10.9021 215.076 14.4497ZM199.341 7.83167C199.064 7.90103 198.805 8.02952 198.582 8.20847C198.358 8.38742 198.175 8.61265 198.045 8.86897C197.637 9.67842 197.352 10.5458 197.202 11.4415L192.06 35.7871C191.837 36.6639 191.747 37.5697 191.792 38.4737C191.812 38.7568 191.891 39.0323 192.026 39.2812C192.161 39.5302 192.348 39.7466 192.574 39.9156C193.252 40.3421 194.007 40.6277 194.795 40.7558C198.69 41.5856 201.748 40.8076 203.969 38.4218C206.19 36.0257 207.887 32.0631 209.06 26.5032C210.232 20.9432 210.253 16.6903 209.111 13.7132C207.97 10.7361 205.491 8.83785 201.655 8.01838C200.904 7.80174 200.117 7.73826 199.341 7.83167Z" fill="white"/>
        <path d="M243.317 57.0519C241.26 56.146 237.763 54.7318 232.827 52.8094C226.142 50.1953 221.12 48.2902 217.76 47.0938L218.12 46.1602C218.883 46.4454 219.684 46.6166 220.496 46.6685C220.763 46.6658 221.026 46.6017 221.264 46.4813C221.503 46.3609 221.712 46.1873 221.874 45.9735C222.397 45.2163 222.813 44.3888 223.108 43.5151L231.932 20.4765C232.293 19.6328 232.535 18.7426 232.652 17.8314C232.677 17.5625 232.64 17.2913 232.544 17.0393C232.447 16.7872 232.294 16.5612 232.096 16.3792C231.469 15.8732 230.777 15.4545 230.04 15.1344L230.389 14.2112C233.667 15.5943 238.654 17.5893 245.353 20.1964C249.857 21.9599 253.083 23.1631 255.03 23.8063C253.824 26.2958 252.836 28.5468 252.068 30.5591C251.664 31.6099 251.32 32.6836 251.04 33.7748L250.012 33.3599C250.828 29.8676 250.889 27.2225 250.197 25.4245C249.807 24.4886 249.221 23.6489 248.479 22.9631C247.737 22.2773 246.856 21.7616 245.898 21.4516L244.006 20.7151C243.32 20.4108 242.591 20.2183 241.846 20.1446C241.613 20.1331 241.38 20.178 241.167 20.2754C240.954 20.3728 240.767 20.52 240.622 20.7047C240.178 21.34 239.831 22.0394 239.594 22.7793L235.048 34.2312L236.529 34.8017C237.233 35.1226 238.006 35.2576 238.776 35.1941C239.546 35.1306 240.288 34.8706 240.931 34.4387C242.308 33.4799 243.474 32.2437 244.355 30.8081L245.384 31.223C244.787 32.4885 244.191 33.92 243.574 35.5382L242.72 37.7684C242.11 39.3451 241.359 41.5788 240.468 44.4694L239.439 44.0545C240.351 39.7185 239.261 36.9524 236.169 35.756L234.698 35.1855L230.214 46.8863C229.899 47.6003 229.698 48.36 229.618 49.1373C229.601 49.3719 229.64 49.6071 229.731 49.8235C229.823 50.0399 229.963 50.2314 230.142 50.3821C230.747 50.83 231.416 51.18 232.127 51.4194L234.38 52.3011C235.359 52.7276 236.42 52.931 237.487 52.897C238.553 52.8629 239.599 52.5922 240.55 52.104C242.463 51.1185 244.376 48.9921 246.309 45.569L247.338 45.9735C246.854 46.959 246.309 48.2452 245.703 49.8219C244.778 52.1864 243.981 54.6 243.317 57.0519Z" fill="white"/>
    </g>
    <defs>
        <clipPath id="clip0">
            <rect width="233" height="57" fill="white" transform="translate(22)"/>
        </clipPath>
    </defs>
</svg>
