<svg width="22" height="22" viewBox="0 0 22 22" fill="none" xmlns="http://www.w3.org/2000/svg">
<path d="M3 19L4.27481 14.3793C3.49377 13.0209 3.0808 11.4926 3.0808 9.91956C3.0808 5.00397 7.10274 1 12.0404 1C14.4374 1 16.6908 1.92949 18.3786 3.61867C20.0663 5.30785 21 7.5422 21 9.9285C21 14.8441 16.9781 18.8481 12.0404 18.8481C10.5411 18.8481 9.06883 18.4727 7.7581 17.7666L3 19Z" fill="#0DC143"/>
<path fill-rule="evenodd" clip-rule="evenodd" d="M9.53984 5.46468C9.35783 5.02681 9.15928 5.01787 8.98554 5.00894C8.8449 5 8.67944 5 8.51398 5C8.34852 5 8.08378 5.06255 7.8604 5.33064C7.63703 5.59873 7 6.24214 7 7.54683C7 8.85153 7.87695 10.1115 8.00105 10.2903C8.12514 10.469 9.7053 13.2303 12.2038 14.2937C14.2803 15.1784 14.7023 14.9997 15.1573 14.955C15.604 14.9103 16.6133 14.3116 16.8202 13.695C17.027 13.0784 17.027 12.5422 16.9608 12.435C16.9029 12.3277 16.7374 12.2562 16.4892 12.1222C16.2411 11.9882 15.0332 11.3447 14.8098 11.2554C14.5864 11.166 14.421 11.1213 14.2555 11.3894C14.09 11.6575 13.6185 12.2562 13.4778 12.426C13.3372 12.6048 13.1883 12.6226 12.9484 12.4886C12.7002 12.3545 11.9142 12.0775 10.9711 11.175C10.2431 10.469 9.74667 9.60217 9.60603 9.33408C9.46538 9.066 9.58948 8.92302 9.71358 8.78897C9.82113 8.6728 9.96177 8.4762 10.0859 8.32429C10.21 8.17237 10.2513 8.0562 10.3341 7.87747C10.4168 7.69875 10.3754 7.54683 10.3175 7.41279C10.2348 7.29662 9.75494 5.99192 9.53984 5.46468Z" fill="white"/>
</svg>
