<svg width="310" height="61" viewBox="0 0 310 61" fill="none" xmlns="http://www.w3.org/2000/svg">
    <path
        d="M144.264 11.0948C145.13 11.0948 145.839 11.0678 146.392 11.0139V11.5534C145.931 11.7332 145.48 12.0839 145.038 12.6054C144.614 13.109 144.254 13.8283 143.96 14.7635L139.094 30.1666C138.891 30.1486 138.569 30.1396 138.127 30.1396C137.684 30.1396 137.362 30.1486 137.159 30.1666L133.095 18.1354L129.004 30.1666C128.801 30.1486 128.479 30.1396 128.037 30.1396C127.594 30.1396 127.272 30.1486 127.069 30.1666L120.877 13.2798C120.656 12.6864 120.389 12.2548 120.075 11.985C119.762 11.7153 119.449 11.5714 119.135 11.5534V11.0139C120.241 11.0678 121.614 11.0948 123.254 11.0948C124.802 11.0948 125.936 11.0678 126.654 11.0139V11.5534C126.009 11.6433 125.687 11.994 125.687 12.6054C125.687 12.8932 125.77 13.2978 125.936 13.8194L129.972 25.23L132.764 17.1913L131.354 13.0101C131.17 12.4886 130.948 12.1289 130.69 11.9311C130.451 11.7153 130.165 11.5894 129.834 11.5534V11.0139C130.866 11.0678 132.183 11.0948 133.787 11.0948C135.593 11.0948 136.92 11.0678 137.767 11.0139V11.5534C137.104 11.5714 136.625 11.6523 136.33 11.7962C136.035 11.9221 135.888 12.1738 135.888 12.5515C135.888 12.8752 135.98 13.2978 136.164 13.8194L139.951 25.0952L142.577 16.9485C143.001 15.5997 143.213 14.5567 143.213 13.8194C143.213 13.0461 143.01 12.4886 142.605 12.1469C142.218 11.7872 141.628 11.5894 140.836 11.5534V11.0139C142.089 11.0678 143.232 11.0948 144.264 11.0948Z"
        fill="white" />
    <path
        d="M157.862 10.6362C159.816 10.6362 161.52 11.0229 162.976 11.7962C164.45 12.5695 165.593 13.6935 166.404 15.1681C167.215 16.6248 167.62 18.3692 167.62 20.4014C167.62 22.3796 167.206 24.133 166.376 25.6616C165.547 27.1903 164.386 28.3772 162.893 29.2224C161.419 30.0677 159.733 30.4903 157.834 30.4903C155.881 30.4903 154.167 30.1036 152.693 29.3303C151.237 28.557 150.103 27.442 149.292 25.9853C148.482 24.5107 148.076 22.7573 148.076 20.7251C148.076 18.7469 148.491 16.9935 149.32 15.4649C150.149 13.9362 151.301 12.7493 152.776 11.9041C154.268 11.0588 155.964 10.6362 157.862 10.6362ZM157.751 11.1218C156.738 11.1218 155.844 11.5264 155.07 12.3357C154.296 13.127 153.697 14.242 153.273 15.6807C152.868 17.1194 152.665 18.7649 152.665 20.6172C152.665 22.4875 152.895 24.133 153.356 25.5537C153.835 26.9745 154.471 28.0715 155.263 28.8448C156.074 29.6181 156.968 30.0047 157.945 30.0047C158.959 30.0047 159.852 29.6091 160.626 28.8178C161.4 28.0085 161.99 26.8845 162.396 25.4458C162.819 24.0071 163.031 22.3616 163.031 20.5093C163.031 18.639 162.792 16.9935 162.313 15.5728C161.852 14.1521 161.216 13.055 160.405 12.2817C159.613 11.5084 158.728 11.1218 157.751 11.1218Z"
        fill="white" />
    <path
        d="M180.612 10.6362C182.566 10.6362 184.27 11.0229 185.726 11.7962C187.2 12.5695 188.343 13.6935 189.154 15.1681C189.965 16.6248 190.37 18.3692 190.37 20.4014C190.37 22.3796 189.956 24.133 189.126 25.6616C188.297 27.1903 187.136 28.3772 185.643 29.2224C184.169 30.0677 182.483 30.4903 180.584 30.4903C178.631 30.4903 176.917 30.1036 175.443 29.3303C173.987 28.557 172.853 27.442 172.042 25.9853C171.232 24.5107 170.826 22.7573 170.826 20.7251C170.826 18.7469 171.241 16.9935 172.07 15.4649C172.899 13.9362 174.051 12.7493 175.526 11.9041C177.018 11.0588 178.714 10.6362 180.612 10.6362ZM180.501 11.1218C179.488 11.1218 178.594 11.5264 177.82 12.3357C177.046 13.127 176.447 14.242 176.023 15.6807C175.618 17.1194 175.415 18.7649 175.415 20.6172C175.415 22.4875 175.645 24.133 176.106 25.5537C176.585 26.9745 177.221 28.0715 178.014 28.8448C178.824 29.6181 179.718 30.0047 180.695 30.0047C181.709 30.0047 182.602 29.6091 183.376 28.8178C184.15 28.0085 184.74 26.8845 185.146 25.4458C185.569 24.0071 185.781 22.3616 185.781 20.5093C185.781 18.639 185.542 16.9935 185.063 15.5728C184.602 14.1521 183.966 13.055 183.155 12.2817C182.363 11.5084 181.478 11.1218 180.501 11.1218Z"
        fill="white" />
    <path
        d="M201.653 11.0139C205.247 11.0139 207.938 11.8142 209.725 13.4147C211.513 14.9973 212.407 17.3082 212.407 20.3474C212.407 22.3077 211.964 24.0251 211.08 25.4998C210.214 26.9565 208.951 28.0894 207.293 28.8987C205.652 29.708 203.69 30.1126 201.405 30.1126L199.691 30.0856C198.622 30.0497 197.848 30.0317 197.369 30.0317C195.47 30.0317 194.051 30.0587 193.111 30.1126V29.5731C193.72 29.5371 194.162 29.4652 194.438 29.3573C194.733 29.2494 194.927 29.0426 195.019 28.7369C195.129 28.4311 195.185 27.9366 195.185 27.2532V13.8733C195.185 13.1899 195.129 12.6954 195.019 12.3896C194.927 12.0839 194.733 11.8771 194.438 11.7692C194.162 11.6613 193.72 11.5894 193.111 11.5534V11.0139C193.885 11.0678 195 11.0948 196.456 11.0948H197.313L198.419 11.0678C199.93 11.0319 201.008 11.0139 201.653 11.0139ZM201.626 11.4994C201.054 11.4994 200.621 11.5624 200.326 11.6883C200.05 11.8142 199.856 12.039 199.746 12.3627C199.635 12.6864 199.58 13.1719 199.58 13.8194V27.3072C199.58 27.9546 199.635 28.4401 199.746 28.7638C199.856 29.0875 200.05 29.3123 200.326 29.4382C200.621 29.5641 201.064 29.6271 201.653 29.6271C203.883 29.6271 205.468 28.8717 206.408 27.3611C207.348 25.8325 207.818 23.5306 207.818 20.4553C207.818 17.3801 207.33 15.1232 206.353 13.6845C205.394 12.2278 203.819 11.4994 201.626 11.4994Z"
        fill="white" />
    <path
        d="M222.313 10.6632C223.272 10.6632 224.037 10.7531 224.608 10.933C225.179 11.1128 225.76 11.3736 226.349 11.7153C226.552 11.8232 226.727 11.9131 226.875 11.985C227.041 12.0569 227.179 12.0929 227.289 12.0929C227.455 12.0929 227.584 12.003 227.676 11.8232C227.768 11.6253 227.842 11.3196 227.897 10.906H228.533C228.441 12.1109 228.395 14.161 228.395 17.0564H227.759C227.686 16.0853 227.455 15.1591 227.068 14.2779C226.7 13.3967 226.165 12.6864 225.465 12.1469C224.783 11.5894 223.981 11.3106 223.06 11.3106C222.157 11.3106 221.42 11.5624 220.848 12.0659C220.295 12.5515 220.019 13.2169 220.019 14.0621C220.019 14.6916 220.157 15.2401 220.434 15.7076C220.71 16.1752 221.097 16.6068 221.595 17.0025C222.092 17.3801 222.857 17.9017 223.889 18.5671L224.774 19.1605C225.861 19.8619 226.718 20.4733 227.345 20.9949C227.971 21.5164 228.478 22.1278 228.865 22.8292C229.27 23.5126 229.473 24.3129 229.473 25.23C229.473 26.381 229.169 27.3521 228.561 28.1434C227.953 28.9167 227.123 29.5012 226.073 29.8968C225.041 30.2924 223.889 30.4903 222.618 30.4903C221.585 30.4903 220.729 30.4004 220.047 30.2205C219.365 30.0407 218.738 29.7979 218.167 29.4922C217.761 29.2404 217.448 29.1145 217.227 29.1145C217.061 29.1145 216.932 29.2134 216.84 29.4112C216.748 29.5911 216.674 29.8878 216.619 30.3014H215.983C216.057 29.1685 216.094 26.7407 216.094 23.018H216.729C216.858 25.0322 217.319 26.6687 218.112 27.9276C218.904 29.1685 220.12 29.7889 221.761 29.7889C222.756 29.7889 223.576 29.5281 224.221 29.0066C224.866 28.4851 225.188 27.7388 225.188 26.7676C225.188 25.7605 224.857 24.8973 224.193 24.178C223.53 23.4586 222.479 22.6494 221.042 21.7502C219.936 21.0488 219.051 20.4374 218.388 19.9158C217.725 19.3943 217.181 18.7829 216.757 18.0815C216.333 17.3621 216.121 16.5349 216.121 15.5997C216.121 14.5207 216.398 13.6125 216.951 12.8752C217.522 12.1199 218.277 11.5624 219.217 11.2027C220.157 10.843 221.189 10.6632 222.313 10.6632Z"
        fill="white" />
    <path
        d="M240.917 11.5534C240.291 11.5894 239.839 11.6613 239.563 11.7692C239.286 11.8771 239.093 12.0839 238.982 12.3896C238.89 12.6954 238.844 13.1899 238.844 13.8733V27.2532C238.844 27.9366 238.89 28.4311 238.982 28.7369C239.093 29.0426 239.286 29.2494 239.563 29.3573C239.839 29.4652 240.291 29.5371 240.917 29.5731V30.1126C239.922 30.0587 238.531 30.0317 236.743 30.0317C234.771 30.0317 233.315 30.0587 232.375 30.1126V29.5731C232.984 29.5371 233.426 29.4652 233.702 29.3573C233.997 29.2494 234.191 29.0426 234.283 28.7369C234.393 28.4311 234.449 27.9366 234.449 27.2532V13.8733C234.449 13.1899 234.393 12.6954 234.283 12.3896C234.191 12.0839 233.997 11.8771 233.702 11.7692C233.426 11.6613 232.984 11.5894 232.375 11.5534V11.0139C233.315 11.0678 234.771 11.0948 236.743 11.0948C238.531 11.0948 239.922 11.0678 240.917 11.0139V11.5534Z"
        fill="white" />
    <path
        d="M252.14 11.0139C255.734 11.0139 258.424 11.8142 260.212 13.4147C262 14.9973 262.894 17.3082 262.894 20.3474C262.894 22.3077 262.451 24.0251 261.567 25.4998C260.7 26.9565 259.438 28.0894 257.779 28.8987C256.139 29.708 254.176 30.1126 251.891 30.1126L250.177 30.0856C249.108 30.0497 248.334 30.0317 247.855 30.0317C245.957 30.0317 244.538 30.0587 243.598 30.1126V29.5731C244.206 29.5371 244.649 29.4652 244.925 29.3573C245.22 29.2494 245.413 29.0426 245.506 28.7369C245.616 28.4311 245.671 27.9366 245.671 27.2532V13.8733C245.671 13.1899 245.616 12.6954 245.506 12.3896C245.413 12.0839 245.22 11.8771 244.925 11.7692C244.649 11.6613 244.206 11.5894 243.598 11.5534V11.0139C244.372 11.0678 245.487 11.0948 246.943 11.0948H247.8L248.906 11.0678C250.417 11.0319 251.495 11.0139 252.14 11.0139ZM252.112 11.4994C251.541 11.4994 251.108 11.5624 250.813 11.6883C250.537 11.8142 250.343 12.039 250.233 12.3627C250.122 12.6864 250.067 13.1719 250.067 13.8194V27.3072C250.067 27.9546 250.122 28.4401 250.233 28.7638C250.343 29.0875 250.537 29.3123 250.813 29.4382C251.108 29.5641 251.55 29.6271 252.14 29.6271C254.37 29.6271 255.955 28.8717 256.895 27.3611C257.835 25.8325 258.305 23.5306 258.305 20.4553C258.305 17.3801 257.816 15.1232 256.84 13.6845C255.881 12.2278 254.305 11.4994 252.112 11.4994Z"
        fill="white" />
    <path
        d="M280.795 26.0123C280.795 27.6668 280.86 29.0336 280.989 30.1126C279.735 30.0587 277.625 30.0317 274.658 30.0317C270.641 30.0317 267.637 30.0587 265.646 30.1126V29.5731C266.254 29.5371 266.697 29.4652 266.973 29.3573C267.268 29.2494 267.462 29.0426 267.554 28.7369C267.664 28.4311 267.72 27.9366 267.72 27.2532V13.8733C267.72 13.1899 267.664 12.6954 267.554 12.3896C267.462 12.0839 267.268 11.8771 266.973 11.7692C266.697 11.6613 266.254 11.5894 265.646 11.5534V11.0139C267.637 11.0678 270.641 11.0948 274.658 11.0948C277.367 11.0948 279.293 11.0678 280.436 11.0139C280.307 12.5065 280.242 13.8373 280.242 15.0063C280.242 15.7976 280.27 16.409 280.325 16.8406H279.689C279.413 14.9164 278.915 13.5676 278.197 12.7943C277.478 12.021 276.464 11.6343 275.156 11.6343H274.022C273.451 11.6343 273.036 11.6793 272.778 11.7692C272.52 11.8591 272.345 12.039 272.253 12.3087C272.161 12.5605 272.115 12.9741 272.115 13.5496V20.2395H273C273.976 20.2395 274.713 19.8889 275.211 19.1875C275.727 18.4861 276.086 17.6499 276.289 16.6788H276.925C276.87 17.4341 276.842 18.2793 276.842 19.2145V20.5093C276.842 21.4265 276.897 22.7033 277.008 24.3398H276.372C275.985 21.966 274.861 20.7791 273 20.7791H272.115V27.5769C272.115 28.1524 272.161 28.575 272.253 28.8448C272.345 29.0965 272.52 29.2674 272.778 29.3573C273.036 29.4472 273.451 29.4922 274.022 29.4922H275.377C276.685 29.4922 277.736 29.0606 278.528 28.1973C279.339 27.3161 279.91 25.8325 280.242 23.7464H280.878C280.823 24.3398 280.795 25.0952 280.795 26.0123Z"
        fill="white" />
    <g clip-path="url(#clip0_5145_5045)">
        <path fill-rule="evenodd" clip-rule="evenodd"
            d="M56.0606 20.1839L55.7488 20.4298L55.4371 20.1839C55.5124 20.0884 55.6273 20.0327 55.7489 20.0327C55.8704 20.0327 55.9853 20.0884 56.0606 20.1839ZM55.7488 21.0959C55.6962 21.1694 55.638 21.2518 55.575 21.3425C55.2774 21.7713 54.8754 22.384 54.4589 23.1176C53.6216 24.5927 52.7453 26.5238 52.5183 28.4184L52.471 28.8126L51.6827 28.7181L51.73 28.3239C51.9755 26.2748 52.9115 24.2353 53.7685 22.7256C54.1991 21.9668 54.6146 21.3336 54.9228 20.8896C55.077 20.6675 55.2046 20.4923 55.2941 20.3721C55.3388 20.312 55.3741 20.2656 55.3984 20.2339C55.4105 20.2181 55.42 20.2059 55.4265 20.1975L55.4341 20.1878L55.4362 20.1851L55.4368 20.1843L55.4371 20.1839C55.4372 20.1838 55.4371 20.1839 55.7488 20.4298C56.0606 20.1839 56.0605 20.1838 56.0606 20.1839L56.0615 20.1851L56.0636 20.1878L56.0712 20.1975C56.0777 20.2059 56.0872 20.2181 56.0993 20.2339C56.1236 20.2656 56.1589 20.312 56.2036 20.3721C56.2931 20.4923 56.4207 20.6675 56.5748 20.8896C56.883 21.3337 57.2985 21.9669 57.7291 22.7256C58.586 24.2353 59.522 26.2748 59.7676 28.3239L59.8148 28.7181L59.0265 28.8126L58.9792 28.4184C58.7522 26.5238 57.8759 24.5927 57.0387 23.1176C56.6222 22.384 56.2202 21.7712 55.9226 21.3425C55.8597 21.2518 55.8015 21.1694 55.7488 21.0959ZM56.1458 30.391V37.2033C56.2031 37.1914 56.2662 37.1765 56.3346 37.1578C56.7196 37.0526 57.2781 36.8269 57.927 36.3401L58.2446 36.1018L58.721 36.7371L58.4034 36.9754C57.6715 37.5244 57.0217 37.7933 56.5438 37.9239C56.3925 37.9652 56.2589 37.9925 56.1458 38.0105V41.8886H55.3519V38.0403C55.2405 38.029 55.1114 38.0087 54.967 37.9746C54.474 37.8579 53.8138 37.5818 53.0768 36.9615L52.773 36.7059L53.2841 36.0983L53.5879 36.3539C54.2316 36.8956 54.7798 37.1142 55.1498 37.2017C55.224 37.2193 55.2916 37.2317 55.3519 37.2404V30.391H56.1458ZM55.6887 37.2546C55.6895 37.2545 55.6893 37.2545 55.6881 37.2547L55.6887 37.2546Z"
            fill="white" />
        <path fill-rule="evenodd" clip-rule="evenodd"
            d="M61.0175 26.5319L60.742 26.8178L60.4581 26.5403L60.7336 26.2583L61.0175 26.5319ZM61.139 39.4777C61.2126 39.4354 61.3004 39.3816 61.3986 39.3148C61.6842 39.1206 62.0596 38.8163 62.4334 38.3696C63.1861 37.4701 63.9129 36.0154 63.9129 33.7778C63.9129 31.547 63.1911 29.7389 62.473 28.492C62.1137 27.8681 61.7539 27.3823 61.4826 27.0508C61.3468 26.885 61.2328 26.7575 61.1517 26.6704C61.1112 26.6269 61.0788 26.5934 61.056 26.5702C61.0445 26.5586 61.0355 26.5496 61.029 26.5432L61.0213 26.5356L61.0189 26.5332L61.018 26.5324L61.0177 26.5321C61.0176 26.532 61.0175 26.5319 60.742 26.8178C60.4581 26.5403 60.4582 26.5402 60.4581 26.5403L60.4576 26.5409L60.4568 26.5416L60.4545 26.544L60.4468 26.552C60.4404 26.5587 60.4314 26.5683 60.4199 26.5806C60.397 26.6051 60.3644 26.6407 60.3234 26.6869C60.2416 26.7793 60.1263 26.9143 59.9891 27.0884C59.715 27.4363 59.3517 27.9423 58.9913 28.5792C58.272 29.8502 57.5537 31.6612 57.5976 33.786C57.6414 35.9099 58.3624 37.3568 59.0881 38.2762C59.4493 38.7338 59.8089 39.0575 60.0814 39.2686C60.1826 39.3469 60.2719 39.4099 60.345 39.4585V43.4428H61.139V39.4777ZM61.139 38.5225C61.3432 38.3649 61.5834 38.1482 61.8245 37.8599C62.4588 37.102 63.1189 35.8273 63.1189 33.7778C63.1189 31.7215 62.4538 30.0496 61.785 28.8884C61.4508 28.3081 61.117 27.8578 60.8683 27.554C60.8258 27.5021 60.7858 27.4545 60.7487 27.4113C60.707 27.4618 60.6614 27.5181 60.6127 27.58C60.3586 27.9024 60.0192 28.3749 59.6823 28.9704C59.0068 30.164 58.3514 31.833 58.3914 33.7696C58.4314 35.7072 59.0842 36.9896 59.7113 37.7841C59.9336 38.0657 60.1539 38.2876 60.345 38.4564V34.1685H61.139V38.5225Z"
            fill="white" />
        <path fill-rule="evenodd" clip-rule="evenodd"
            d="M51.0087 26.5319L50.7332 26.8178L50.4493 26.5403L50.7248 26.2583L51.0087 26.5319ZM51.1302 39.4777C51.2038 39.4354 51.2916 39.3816 51.3898 39.3148C51.6754 39.1206 52.0508 38.8163 52.4246 38.3696C53.1773 37.4701 53.9041 36.0154 53.9041 33.7778C53.9041 31.547 53.1823 29.7389 52.4642 28.492C52.1049 27.8681 51.7452 27.3823 51.4738 27.0508C51.338 26.885 51.2241 26.7575 51.1429 26.6704C51.1024 26.6269 51.07 26.5934 51.0472 26.5702C51.0358 26.5586 51.0267 26.5496 51.0203 26.5432L51.0125 26.5356L51.0101 26.5332L51.0092 26.5324L51.0089 26.5321C51.0088 26.532 51.0087 26.5319 50.7332 26.8178C50.4493 26.5403 50.4494 26.5402 50.4493 26.5403L50.4488 26.5409L50.448 26.5416L50.4457 26.544L50.438 26.552C50.4316 26.5587 50.4226 26.5683 50.4111 26.5806C50.3882 26.6051 50.3556 26.6407 50.3146 26.6869C50.2328 26.7793 50.1176 26.9143 49.9804 27.0884C49.7062 27.4363 49.3429 27.9423 48.9825 28.5792C48.2632 29.8502 47.5449 31.6612 47.5888 33.786C47.6327 35.9099 48.3536 37.3568 49.0793 38.2762C49.4405 38.7338 49.8002 39.0575 50.0727 39.2686C50.1738 39.3469 50.2631 39.4099 50.3363 39.4585V43.4428H51.1302V39.4777ZM51.1302 38.5225C51.3344 38.3649 51.5746 38.1482 51.8158 37.8599C52.45 37.102 53.1101 35.8273 53.1101 33.7778C53.1101 31.7215 52.445 30.0496 51.7762 28.8884C51.442 28.3081 51.1083 27.8578 50.8595 27.554C50.817 27.5021 50.777 27.4545 50.74 27.4113C50.6982 27.4618 50.6527 27.5181 50.6039 27.58C50.3498 27.9024 50.0105 28.3749 49.6735 28.9704C48.998 30.164 48.3426 31.833 48.3826 33.7696C48.4226 35.7072 49.0754 36.9896 49.7025 37.7841C49.9248 38.0657 50.1451 38.2876 50.3363 38.4564V34.1685H51.1302V38.5225Z"
            fill="white" />
        <path fill-rule="evenodd" clip-rule="evenodd"
            d="M47.7537 12.6516L55.7506 12.223L63.7474 12.6903V4.02583L61.3 5.66543C62.3245 6.51349 63.0075 8.43578 61.3 9.22731C60.2755 9.62308 59.1371 9.56654 58.3403 9.22731C57.9419 9.0577 57.6573 8.83155 57.4296 8.54886C57.2019 8.20963 57.0312 7.81386 57.0881 7.4181C57.145 6.9658 57.3158 6.45696 57.828 5.94812L55.7508 2.64867L53.5592 5.89158C54.0715 6.62657 54.9253 8.32271 52.5347 9.22731C51.7379 9.51 50.998 9.56654 50.4288 9.45346C49.9165 9.34039 49.575 9.11423 49.2905 8.83155C49.0059 8.54886 48.7782 8.15309 48.7782 7.75733C48.7213 7.36156 48.7782 7.02234 49.0059 6.68311C49.2335 6.23081 49.4612 5.94812 49.6889 5.72196L47.8106 3.85622V12.6516H47.7537ZM64.1669 13.7185L61.4617 13.1203L55.7508 12.8212L50.0873 13.1203L46.5584 13.7824V1.87739L50.998 5.38274C50.998 5.38274 50.4288 6.28734 49.9165 7.13541C49.8596 7.24849 49.8027 7.4181 49.8596 7.58771C49.8596 7.75733 49.9735 7.8704 50.0873 7.98348C50.2011 8.09655 50.4288 8.20963 50.6565 8.26617C51.0549 8.32271 51.5102 8.3227 52.1363 8.09655C53.6162 7.53118 52.364 6.23081 52.364 6.17427L52.0225 5.83504L55.7508 0.637238L59.1941 6.17427L58.8525 6.45696C58.3972 6.85272 58.2265 7.19195 58.1695 7.47464C58.1695 7.58771 58.2265 7.75733 58.2834 7.8704C58.3972 7.98348 58.568 8.15309 58.7956 8.20963C59.3648 8.43578 60.1047 8.49232 60.9016 8.20963C62.1537 7.75733 59.8771 5.55235 59.8771 5.49581L64.9427 1.87739V13.8211L64.1669 13.7185Z"
            fill="white" />
        <path fill-rule="evenodd" clip-rule="evenodd"
            d="M39.4998 15.7853V38.9093C39.6705 39.8139 42.4594 51.913 55.6073 57.2841C68.7552 51.913 71.5442 39.8139 71.7149 38.9093V15.7853C67.5599 13.9761 61.5836 13.0715 55.6073 13.0715C49.631 13.0715 43.6547 13.9761 39.4998 15.7853ZM38.5891 39.0223V15.1069L38.8737 14.9938C43.1425 13.0715 49.3464 12.1104 55.6073 12.1104C61.8113 12.1104 68.0722 13.0715 72.341 14.9938L72.6256 15.1069V39.0223V39.0789C72.6256 39.1354 70.0074 52.5914 55.7781 58.3017L55.6073 58.3583L55.4366 58.3017C41.2073 52.5349 38.5891 39.1354 38.5891 39.0789V39.0223Z"
            fill="white" />
        <path fill-rule="evenodd" clip-rule="evenodd"
            d="M19.8534 11.3822H19.9103H25.2605L25.3744 11.4953C25.3744 11.4953 27.4803 13.1914 28.6186 13.4741C29.8708 13.7568 31.7491 14.1526 31.7491 14.1526L32.1475 14.2091L32.0906 14.6049C32.0906 14.6049 31.8629 16.8098 30.8384 17.6014L30.7246 17.7145H30.5538C30.5538 17.7145 29.7001 17.7145 28.8463 18.1668C28.9601 18.5625 29.1878 18.9583 29.7001 19.1844L29.9846 19.2975V24.1032L30.8953 25.2905L35.278 20.7675V18.6191L39.4898 15.7922V23.9901L31.2368 32.0185V34.6193V39.8207L34.8795 43.4391H35.7333L38.4084 41.5734V49.206H34.1396L29.4724 44.8526C29.5293 48.3579 27.2526 51.5806 26.5127 52.5417L28.9601 55.6513H31.0661L33.7412 59.609H26.8542L20.9348 52.4852L21.0487 52.259C22.7562 48.1318 20.5364 45.0222 19.5688 43.8914C19.1135 44.9091 18.9427 46.2095 19.1704 47.9056L19.2273 48.1318L12.9095 53.0506V55.3686H14.6739L17.2352 59.609H8.98222L8.5838 50.8456L11.9988 47.4533V40.4992C8.12846 35.8631 4.25809 31.2835 0.444641 26.6474L0.501558 26.4213C0.501558 26.4213 0.843061 24.3859 3.34742 24.3859H3.57509L11.202 33.1493C11.4297 32.3012 11.6004 30.6616 10.5759 28.7393L3.17667 20.2021L1.46915 18.2233L1.69682 14.8876L5.11185 19.0714V21.1067L11.2589 28.2305V28.287C13.0233 31.6227 11.7142 34.2235 11.7142 34.2235L11.4297 34.8454L3.11975 25.3471C1.92449 25.4036 1.52607 26.1386 1.41223 26.4778L12.4542 39.7077C14.3324 37.7288 15.4139 35.75 15.983 33.6016C16.5522 31.3401 16.5522 28.9089 16.2107 26.1386L15.0724 25.0078V19.0148V18.8452V13.361L16.5522 11.3257H18.9996H19.8534V11.3822ZM31.2368 26.082V30.4355V30.7747L38.5222 23.5378V17.3752L36.1317 19.0148V21.0502L31.2368 26.082ZM28.5617 43.948L25.0329 40.6123C24.2929 40.6688 21.504 40.9515 20.0241 43.0434C20.9917 44.0045 23.7807 47.5099 21.9593 52.259L27.3095 58.6478H32.0906L30.6107 56.5559H28.5617L25.4313 52.5417L25.6589 52.259C25.6589 52.3156 29.2447 48.0752 28.5617 43.948ZM31.2368 41.1211L30.44 40.3296L17.1214 27.0997C17.349 29.5309 17.2921 31.7358 16.7799 33.7712C16.1538 36.1458 14.9585 38.2942 12.8526 40.4992V47.8491L9.49447 51.1848L9.83597 58.7044H15.6415L14.1617 56.2732H11.9419V52.5983L18.2028 47.736C17.2352 39.7077 25.1467 39.7077 25.1467 39.7077H25.3174L34.4811 48.3014H37.4977V43.2695L36.0179 44.2872H34.4811C33.4566 43.2695 32.3183 42.1953 31.2368 41.1211ZM30.3262 34.9019C25.4882 29.9266 20.7072 24.9513 15.8692 19.9194V24.5555L30.3262 38.9161V34.9019ZM28.1064 18.7321C27.4234 19.4671 27.1957 20.089 27.0819 20.3717L29.0171 22.9159V19.8629C28.5617 19.5237 28.2771 19.1279 28.1064 18.7321ZM30.3262 30.6616C25.4882 25.234 20.7641 19.8064 15.9261 14.3787V18.6756L30.3831 33.6581V30.6616H30.3262ZM26.2281 20.711L22.0162 15.3399C18.6012 15.2268 17.2921 13.5307 16.8368 12.5695L16.1538 13.361L30.3262 29.4178V26.1386L26.2281 20.711ZM21.2763 14.3787L19.6257 12.2868H17.6905C18.032 12.9087 18.9427 14.096 21.2763 14.3787ZM24.919 12.2303H20.7072L26.3989 19.5237C26.5696 19.1279 26.9111 18.6191 27.3665 18.1102C28.3341 17.036 29.757 16.8664 30.2692 16.8098C30.7246 16.3575 30.9522 15.3964 31.0661 14.8876C30.44 14.7745 29.2447 14.4918 28.3341 14.3222C27.2526 14.0395 25.4313 12.6261 24.919 12.2303Z"
            fill="white" />
        <path fill-rule="evenodd" clip-rule="evenodd"
            d="M91.6165 11.3257H91.5596H86.2094L86.0955 11.4388C86.0955 11.4388 83.9896 13.1349 82.8512 13.4176C81.5991 13.7003 79.7208 14.096 79.7208 14.096L79.3224 14.1526L79.3793 14.5483C79.3793 14.5483 79.607 16.7533 80.6315 17.5448L80.7453 17.6579H80.9161C80.9161 17.6579 81.7698 17.6579 82.6236 18.1102C82.5097 18.506 82.2821 18.9018 81.7698 19.1279L81.4852 19.241V24.0467L80.5745 25.234L76.1919 20.711V18.5625L71.9801 15.7356V23.9336L80.1761 32.0751V34.6758V39.8773L76.5334 43.4957H75.6797L73.0046 41.63V49.2626H77.2734L81.9406 44.9091C81.8837 48.4145 84.1603 51.6371 84.9003 52.5983L82.4528 55.7079H80.3469L77.6718 59.6655H84.5018L90.4781 52.5418L90.3643 52.3156C88.6568 48.1883 90.8766 45.0788 91.8442 43.948C92.2995 44.9657 92.5272 46.2661 92.2426 47.9622L92.2995 48.1318L98.6173 53.0506V55.3686H96.796L94.2347 59.609H102.488L102.886 50.8456L99.4711 47.4534V40.4427C103.285 35.8631 107.155 31.227 110.968 26.6474L110.911 26.4213C110.911 26.4213 110.57 24.3859 108.066 24.3859H107.838L100.211 33.1493C99.9833 32.3012 99.8126 30.6616 100.837 28.7393L108.236 20.2021L109.944 18.2798L109.716 14.9441L106.301 19.1279V21.1633L100.097 28.3436V28.4001C98.3327 31.7358 99.6418 34.3366 99.6418 34.3366L99.9264 34.9585L108.236 25.4601C109.432 25.5167 109.83 26.2517 109.944 26.5909L99.0157 39.6511C97.1375 37.6723 96.056 35.6935 95.4869 33.545C94.9177 31.2835 94.9177 28.8524 95.2592 26.0821L96.3975 24.9513V19.0148V18.8452V13.361L94.9177 11.3257H92.4703H91.6165ZM80.1761 26.0821V30.4355V30.7747L72.8907 23.5379V17.3752L75.2813 19.0148V21.0502L80.1761 26.0821ZM82.9082 43.948L86.437 40.6123C87.1769 40.6688 89.909 40.9515 91.4457 43.0434C90.4781 44.0045 87.6892 47.5099 89.5106 52.2591L84.1603 58.6478H79.3793L80.8591 56.4994H82.9082L86.0386 52.4852L85.8109 52.2025C85.8109 52.2591 82.2252 48.0753 82.9082 43.948ZM80.1761 41.0646L80.973 40.273L94.2347 27.0997C94.007 29.5309 94.0639 31.7358 94.5762 33.7712C95.2023 36.1458 96.3975 38.2942 98.5035 40.4992V47.8491L101.862 51.1848L101.52 58.7044H95.7145L97.1944 56.2733H99.4141V52.6548L93.2102 47.7926C94.1778 39.7642 86.2663 39.7642 86.2663 39.7642H86.0955L76.9319 48.358H73.9152V43.3261L75.3951 44.3438H76.9319C78.0133 43.2696 79.0947 42.1953 80.1761 41.0646ZM81.0868 34.902C85.9248 29.9266 90.7058 24.9513 95.5438 19.9194V24.5555L81.0868 38.9161V34.902ZM83.3635 18.6756C84.0465 19.4106 84.2742 20.0325 84.388 20.3152L82.4528 22.8594V19.8064C82.9082 19.5237 83.1927 19.1279 83.3635 18.6756ZM81.0868 30.6616C85.9248 25.234 90.7058 19.8064 95.5438 14.3787V18.6756L81.0868 33.6581V30.6616ZM85.2418 20.6544L89.4536 15.2833C92.8687 15.1703 94.1778 13.4741 94.6331 12.513L95.3161 13.3045L81.1437 29.3612V26.0821L85.2418 20.6544ZM90.1366 14.3222L91.7872 12.2303H93.7224C93.3809 12.9087 92.4702 14.096 90.1366 14.3222ZM86.4939 12.2303H90.7058L85.0141 19.5237C84.8433 19.1279 84.5018 18.6191 84.0465 18.1102C83.0789 17.036 81.656 16.8664 81.1437 16.8099C80.6884 16.3575 80.4607 15.3964 80.3469 14.8876C80.973 14.7745 82.1682 14.4918 83.0789 14.3222C84.1603 13.983 86.0386 12.6261 86.4939 12.2303Z"
            fill="white" />
    </g>
    <path
        d="M142.468 57.9433C141.929 58.5008 141.351 58.8964 140.733 59.1302C140.115 59.382 139.367 59.5079 138.49 59.5079C137.333 59.5079 136.416 59.292 135.738 58.8604C135.08 58.4108 134.651 57.6555 134.452 56.5945L133.914 53.8969C133.654 52.5841 133.335 51.622 132.957 51.0105C132.598 50.3811 131.989 50.0664 131.132 50.0664H129.188V56.2708C129.188 56.9542 129.238 57.4487 129.337 57.7544C129.457 58.0602 129.666 58.267 129.966 58.3749C130.265 58.4828 130.753 58.5547 131.431 58.5907V59.1302C130.354 59.0762 128.849 59.0493 126.915 59.0493C124.781 59.0493 123.206 59.0762 122.189 59.1302V58.5907C122.847 58.5547 123.326 58.4828 123.625 58.3749C123.944 58.267 124.153 58.0602 124.253 57.7544C124.373 57.4487 124.432 56.9542 124.432 56.2708V42.8909C124.432 42.2075 124.373 41.7129 124.253 41.4072C124.153 41.1015 123.944 40.8947 123.625 40.7868C123.326 40.6789 122.847 40.6069 122.189 40.571V40.0315C123.206 40.0854 124.721 40.1124 126.735 40.1124L130.055 40.0854C130.454 40.0674 130.913 40.0584 131.431 40.0584C134.183 40.0584 136.247 40.4631 137.622 41.2723C139.018 42.0816 139.716 43.2416 139.716 44.7522C139.716 46.029 139.198 47.153 138.161 48.1241C137.124 49.0953 135.409 49.7067 133.016 49.9585C134.811 50.1024 136.147 50.453 137.024 51.0105C137.902 51.568 138.47 52.4043 138.729 53.5193L139.417 56.2978C139.576 57.0171 139.756 57.5207 139.955 57.8084C140.175 58.0961 140.474 58.24 140.853 58.24C141.092 58.222 141.291 58.1681 141.451 58.0781C141.63 57.9882 141.83 57.8354 142.049 57.6196L142.468 57.9433ZM131.042 40.571C130.504 40.571 130.105 40.6339 129.846 40.7598C129.607 40.8857 129.437 41.1105 129.337 41.4342C129.238 41.7579 129.188 42.2435 129.188 42.8909V49.5269H130.474C132.109 49.5269 133.226 49.1402 133.824 48.3669C134.442 47.5756 134.751 46.4696 134.751 45.0489C134.751 43.5743 134.462 42.4593 133.884 41.704C133.305 40.9486 132.358 40.571 131.042 40.571Z"
        fill="white" />
    <path
        d="M161.337 55.0299C161.337 56.6844 161.407 58.0512 161.547 59.1302C160.191 59.0762 157.908 59.0493 154.698 59.0493C150.351 59.0493 147.101 59.0762 144.947 59.1302V58.5907C145.605 58.5547 146.084 58.4828 146.383 58.3749C146.702 58.267 146.911 58.0602 147.011 57.7544C147.131 57.4487 147.19 56.9542 147.19 56.2708V42.8909C147.19 42.2075 147.131 41.7129 147.011 41.4072C146.911 41.1015 146.702 40.8947 146.383 40.7868C146.084 40.6789 145.605 40.6069 144.947 40.571V40.0315C147.101 40.0854 150.351 40.1124 154.698 40.1124C157.629 40.1124 159.712 40.0854 160.949 40.0315C160.809 41.5241 160.739 42.8549 160.739 44.0239C160.739 44.8151 160.769 45.4266 160.829 45.8582H160.141C159.842 43.9339 159.304 42.5852 158.526 41.8119C157.748 41.0386 156.652 40.6519 155.236 40.6519H154.01C153.392 40.6519 152.943 40.6969 152.664 40.7868C152.385 40.8767 152.195 41.0565 152.096 41.3263C151.996 41.5781 151.946 41.9917 151.946 42.5672V49.2571H152.903C153.96 49.2571 154.757 48.9064 155.296 48.2051C155.854 47.5037 156.243 46.6675 156.462 45.6963H157.15C157.09 46.4517 157.06 47.2969 157.06 48.232V49.5269C157.06 50.444 157.12 51.7209 157.24 53.3574H156.552C156.133 50.9836 154.917 49.7966 152.903 49.7966H151.946V56.5945C151.946 57.17 151.996 57.5926 152.096 57.8623C152.195 58.1141 152.385 58.285 152.664 58.3749C152.943 58.4648 153.392 58.5098 154.01 58.5098H155.475C156.891 58.5098 158.028 58.0781 158.885 57.2149C159.762 56.3337 160.38 54.8501 160.739 52.764H161.427C161.367 53.3574 161.337 54.1127 161.337 55.0299Z"
        fill="white" />
    <path
        d="M172.606 39.6808C173.643 39.6808 174.47 39.7707 175.088 39.9505C175.707 40.1304 176.335 40.3911 176.973 40.7328C177.192 40.8407 177.382 40.9307 177.541 41.0026C177.72 41.0745 177.87 41.1105 177.99 41.1105C178.169 41.1105 178.309 41.0206 178.408 40.8407C178.508 40.6429 178.588 40.3372 178.648 39.9236H179.336C179.236 41.1285 179.186 43.1786 179.186 46.074H178.498C178.418 45.1029 178.169 44.1767 177.75 43.2955C177.352 42.4143 176.773 41.704 176.016 41.1644C175.278 40.6069 174.411 40.3282 173.414 40.3282C172.437 40.3282 171.639 40.58 171.021 41.0835C170.423 41.5691 170.124 42.2345 170.124 43.0797C170.124 43.7091 170.273 44.2576 170.572 44.7252C170.871 45.1928 171.29 45.6244 171.828 46.0201C172.367 46.3977 173.194 46.9192 174.311 47.5846L175.268 48.1781C176.444 48.8795 177.372 49.4909 178.049 50.0124C178.727 50.534 179.276 51.1454 179.694 51.8468C180.133 52.5302 180.353 53.3304 180.353 54.2476C180.353 55.3986 180.023 56.3697 179.365 57.161C178.707 57.9343 177.81 58.5187 176.674 58.9144C175.557 59.31 174.311 59.5079 172.935 59.5079C171.818 59.5079 170.891 59.4179 170.153 59.2381C169.416 59.0583 168.738 58.8155 168.12 58.5098C167.681 58.258 167.342 58.1321 167.103 58.1321C166.923 58.1321 166.784 58.231 166.684 58.4288C166.584 58.6087 166.505 58.9054 166.445 59.319H165.757C165.837 58.186 165.876 55.7582 165.876 52.0356H166.564C166.704 54.0498 167.202 55.6863 168.06 56.9452C168.917 58.186 170.233 58.8065 172.008 58.8065C173.085 58.8065 173.972 58.5457 174.67 58.0242C175.368 57.5027 175.717 56.7563 175.717 55.7852C175.717 54.7781 175.358 53.9149 174.64 53.1956C173.922 52.4762 172.785 51.6669 171.23 50.7678C170.034 50.0664 169.077 49.4549 168.359 48.9334C167.641 48.4119 167.053 47.8004 166.594 47.0991C166.136 46.3797 165.906 45.5525 165.906 44.6173C165.906 43.5383 166.205 42.6301 166.804 41.8928C167.422 41.1375 168.239 40.58 169.256 40.2203C170.273 39.8606 171.39 39.6808 172.606 39.6808Z"
        fill="white" />
    <path
        d="M193.062 40.571C192.385 40.6069 191.896 40.6789 191.597 40.7868C191.298 40.8947 191.088 41.1015 190.969 41.4072C190.869 41.7129 190.819 42.2075 190.819 42.8909V56.2708C190.819 56.9542 190.869 57.4487 190.969 57.7544C191.088 58.0602 191.298 58.267 191.597 58.3749C191.896 58.4828 192.385 58.5547 193.062 58.5907V59.1302C191.986 59.0762 190.48 59.0493 188.546 59.0493C186.413 59.0493 184.837 59.0762 183.821 59.1302V58.5907C184.479 58.5547 184.957 58.4828 185.256 58.3749C185.575 58.267 185.785 58.0602 185.884 57.7544C186.004 57.4487 186.064 56.9542 186.064 56.2708V42.8909C186.064 42.2075 186.004 41.7129 185.884 41.4072C185.785 41.1015 185.575 40.8947 185.256 40.7868C184.957 40.6789 184.479 40.6069 183.821 40.571V40.0315C184.837 40.0854 186.413 40.1124 188.546 40.1124C190.48 40.1124 191.986 40.0854 193.062 40.0315V40.571Z"
        fill="white" />
    <path
        d="M206.16 40.0315C210.048 40.0315 212.959 40.8317 214.894 42.4323C216.828 44.0149 217.795 46.3258 217.795 49.365C217.795 51.3253 217.316 53.0427 216.359 54.5174C215.422 55.974 214.056 57.107 212.262 57.9163C210.487 58.7256 208.363 59.1302 205.891 59.1302L204.037 59.1032C202.88 59.0673 202.043 59.0493 201.524 59.0493C199.47 59.0493 197.935 59.0762 196.918 59.1302V58.5907C197.576 58.5547 198.055 58.4828 198.354 58.3749C198.673 58.267 198.882 58.0602 198.982 57.7544C199.102 57.4487 199.161 56.9542 199.161 56.2708V42.8909C199.161 42.2075 199.102 41.7129 198.982 41.4072C198.882 41.1015 198.673 40.8947 198.354 40.7868C198.055 40.6789 197.576 40.6069 196.918 40.571V40.0315C197.756 40.0854 198.962 40.1124 200.537 40.1124H201.464L202.661 40.0854C204.296 40.0495 205.462 40.0315 206.16 40.0315ZM206.13 40.517C205.512 40.517 205.044 40.58 204.724 40.7059C204.425 40.8317 204.216 41.0565 204.096 41.3802C203.977 41.704 203.917 42.1895 203.917 42.8369V56.3247C203.917 56.9721 203.977 57.4577 204.096 57.7814C204.216 58.1051 204.425 58.3299 204.724 58.4558C205.044 58.5817 205.522 58.6446 206.16 58.6446C208.573 58.6446 210.288 57.8893 211.305 56.3787C212.321 54.8501 212.83 52.5481 212.83 49.4729C212.83 46.3977 212.301 44.1408 211.245 42.7021C210.208 41.2454 208.503 40.517 206.13 40.517Z"
        fill="white" />
    <path
        d="M235.61 55.0299C235.61 56.6844 235.68 58.0512 235.819 59.1302C234.464 59.0762 232.18 59.0493 228.97 59.0493C224.623 59.0493 221.373 59.0762 219.22 59.1302V58.5907C219.878 58.5547 220.356 58.4828 220.655 58.3749C220.974 58.267 221.184 58.0602 221.284 57.7544C221.403 57.4487 221.463 56.9542 221.463 56.2708V42.8909C221.463 42.2075 221.403 41.7129 221.284 41.4072C221.184 41.1015 220.974 40.8947 220.655 40.7868C220.356 40.6789 219.878 40.6069 219.22 40.571V40.0315C221.373 40.0854 224.623 40.1124 228.97 40.1124C231.901 40.1124 233.985 40.0854 235.221 40.0315C235.082 41.5241 235.012 42.8549 235.012 44.0239C235.012 44.8151 235.042 45.4266 235.102 45.8582H234.414C234.115 43.9339 233.576 42.5852 232.799 41.8119C232.021 41.0386 230.924 40.6519 229.509 40.6519H228.282C227.664 40.6519 227.216 40.6969 226.936 40.7868C226.657 40.8767 226.468 41.0565 226.368 41.3263C226.268 41.5781 226.219 41.9917 226.219 42.5672V49.2571H227.176C228.232 49.2571 229.03 48.9064 229.568 48.2051C230.127 47.5037 230.516 46.6675 230.735 45.6963H231.423C231.363 46.4517 231.333 47.2969 231.333 48.232V49.5269C231.333 50.444 231.393 51.7209 231.512 53.3574H230.825C230.406 50.9836 229.19 49.7966 227.176 49.7966H226.219V56.5945C226.219 57.17 226.268 57.5926 226.368 57.8623C226.468 58.1141 226.657 58.285 226.936 58.3749C227.216 58.4648 227.664 58.5098 228.282 58.5098H229.748C231.164 58.5098 232.3 58.0781 233.157 57.2149C234.035 56.3337 234.653 54.8501 235.012 52.764H235.7C235.64 53.3574 235.61 54.1127 235.61 55.0299Z"
        fill="white" />
    <path
        d="M258.484 40.571C257.826 40.6609 257.338 40.8138 257.019 41.0296C256.72 41.2454 256.51 41.5871 256.391 42.0546C256.291 42.5222 256.241 43.2146 256.241 44.1318V59.1841L255.523 59.1572L254.716 59.1841L241.735 44.3476V54.7062C241.735 55.7672 241.795 56.5495 241.915 57.0531C242.034 57.5386 242.293 57.8983 242.692 58.1321C243.091 58.3479 243.739 58.5008 244.636 58.5907V59.1302C243.859 59.0762 242.782 59.0493 241.406 59.0493C240.309 59.0493 239.442 59.0762 238.804 59.1302V58.5907C239.462 58.5008 239.941 58.3479 240.24 58.1321C240.559 57.9163 240.768 57.5746 240.868 57.107C240.987 56.6394 241.047 55.9471 241.047 55.0299V42.8909C241.047 42.2075 240.987 41.7129 240.868 41.4072C240.768 41.1015 240.559 40.8947 240.24 40.7868C239.941 40.6789 239.462 40.6069 238.804 40.571V40.0315C239.442 40.0854 240.309 40.1124 241.406 40.1124C242.403 40.1124 243.26 40.0854 243.978 40.0315L255.553 52.8988V44.4555C255.553 43.3944 255.493 42.6211 255.374 42.1356C255.254 41.632 254.995 41.2723 254.596 41.0565C254.197 40.8228 253.549 40.6609 252.652 40.571V40.0315C253.43 40.0854 254.506 40.1124 255.882 40.1124C256.999 40.1124 257.866 40.0854 258.484 40.0315V40.571Z"
        fill="white" />
    <path
        d="M270.356 39.6538C271.552 39.6538 272.569 39.8067 273.406 40.1124C274.244 40.4181 275.061 40.8497 275.859 41.4072C276.078 41.5691 276.268 41.65 276.427 41.65C276.826 41.65 277.085 41.1105 277.205 40.0315H277.893C277.813 41.2544 277.773 43.4304 277.773 46.5596H277.085C276.906 45.2288 276.666 44.2127 276.367 43.5113C276.068 42.81 275.56 42.1985 274.842 41.677C274.343 41.2454 273.765 40.9217 273.107 40.7059C272.449 40.4721 271.761 40.3552 271.043 40.3552C269.03 40.3552 267.534 41.2454 266.557 43.0258C265.58 44.7882 265.092 46.9912 265.092 49.6348C265.092 52.2604 265.6 54.4544 266.617 56.2168C267.634 57.9792 269.149 58.8604 271.163 58.8604C271.841 58.8604 272.509 58.7525 273.167 58.5367C273.845 58.3029 274.413 57.9702 274.872 57.5386C275.61 57.0351 276.118 56.4057 276.397 55.6503C276.696 54.895 276.926 53.789 277.085 52.3323H277.773C277.773 55.5874 277.813 57.8533 277.893 59.1302H277.205C277.145 58.5547 277.055 58.1501 276.936 57.9163C276.836 57.6645 276.686 57.5386 276.487 57.5386C276.327 57.5386 276.118 57.6106 275.859 57.7544C274.962 58.3299 274.104 58.7705 273.287 59.0762C272.469 59.364 271.482 59.5079 270.326 59.5079C268.212 59.5079 266.358 59.1212 264.763 58.3479C263.187 57.5746 261.961 56.4596 261.084 55.0029C260.206 53.5283 259.768 51.7748 259.768 49.7427C259.768 47.7645 260.216 46.0111 261.114 44.4824C262.011 42.9538 263.257 41.7669 264.852 40.9217C266.467 40.0764 268.302 39.6538 270.356 39.6538Z"
        fill="white" />
    <path
        d="M297.575 55.0299C297.575 56.6844 297.645 58.0512 297.785 59.1302C296.429 59.0762 294.146 59.0493 290.935 59.0493C286.589 59.0493 283.339 59.0762 281.185 59.1302V58.5907C281.843 58.5547 282.322 58.4828 282.621 58.3749C282.94 58.267 283.149 58.0602 283.249 57.7544C283.368 57.4487 283.428 56.9542 283.428 56.2708V42.8909C283.428 42.2075 283.368 41.7129 283.249 41.4072C283.149 41.1015 282.94 40.8947 282.621 40.7868C282.322 40.6789 281.843 40.6069 281.185 40.571V40.0315C283.339 40.0854 286.589 40.1124 290.935 40.1124C293.867 40.1124 295.95 40.0854 297.186 40.0315C297.047 41.5241 296.977 42.8549 296.977 44.0239C296.977 44.8151 297.007 45.4266 297.067 45.8582H296.379C296.08 43.9339 295.541 42.5852 294.764 41.8119C293.986 41.0386 292.89 40.6519 291.474 40.6519H290.248C289.629 40.6519 289.181 40.6969 288.902 40.7868C288.622 40.8767 288.433 41.0565 288.333 41.3263C288.234 41.5781 288.184 41.9917 288.184 42.5672V49.2571H289.141C290.198 49.2571 290.995 48.9064 291.534 48.2051C292.092 47.5037 292.481 46.6675 292.7 45.6963H293.388C293.328 46.4517 293.298 47.2969 293.298 48.232V49.5269C293.298 50.444 293.358 51.7209 293.478 53.3574H292.79C292.371 50.9836 291.155 49.7966 289.141 49.7966H288.184V56.5945C288.184 57.17 288.234 57.5926 288.333 57.8623C288.433 58.1141 288.622 58.285 288.902 58.3749C289.181 58.4648 289.629 58.5098 290.248 58.5098H291.713C293.129 58.5098 294.265 58.0781 295.123 57.2149C296 56.3337 296.618 54.8501 296.977 52.764H297.665C297.605 53.3574 297.575 54.1127 297.575 55.0299Z"
        fill="white" />
    <defs>
        <clipPath id="clip0_5145_5045">
            <rect width="111.501" height="60.4232" fill="white" transform="translate(0 0.57666)" />
        </clipPath>
    </defs>
</svg>