<svg width="60" height="41" viewBox="0 0 60 41" fill="none" xmlns="http://www.w3.org/2000/svg">
    <g id="Group">
        <path id="Vector"
            d="M58.7454 6.40264C58.0541 3.88112 56.0239 1.89958 53.4408 1.2246C48.7636 3.66569e-07 29.9999 0 29.9999 0C29.9999 0 11.2364 3.66569e-07 6.55909 1.2246C3.97597 1.89958 1.946 3.88112 1.25453 6.40264C3.75527e-07 10.9684 0 20.5 0 20.5C0 20.5 3.75527e-07 30.0317 1.25453 34.5974C1.946 37.1189 3.97597 39.1005 6.55909 39.7753C11.2364 41 29.9999 41 29.9999 41C29.9999 41 48.7636 41 53.4408 39.7753C56.0239 39.1005 58.0541 37.1189 58.7454 34.5974C60 30.0317 60 20.5 60 20.5C60 20.5 59.995 10.9684 58.7454 6.40264Z"
            fill="#FF0000" />
        <path id="Vector_2" d="M23.9941 29.2851L39.5819 20.5008L23.9941 11.7164V29.2851Z"
            fill="white" />
    </g>
</svg>