<svg width="88" height="85" viewBox="0 0 88 85" fill="none" xmlns="http://www.w3.org/2000/svg">
<path d="M3.45728 81.5006C3.45728 80.7823 3.60133 80.1561 3.87144 79.6035C4.14154 79.051 4.51969 78.6274 5.02388 78.3327C5.51007 78.038 6.06828 77.8906 6.69853 77.8906C7.07667 77.8906 7.4008 77.9459 7.6529 78.0564C7.923 78.1669 8.1751 78.3142 8.4272 78.5168C8.49922 78.5721 8.55324 78.6089 8.60727 78.6089C8.73331 78.6089 8.82335 78.4248 8.85936 78.038H9.07545C9.05744 78.48 9.03943 79.2536 9.03943 80.3771H8.82335C8.76933 79.8982 8.6973 79.5298 8.60727 79.2904C8.51723 79.0326 8.35517 78.83 8.12108 78.6274C7.79695 78.3142 7.4008 78.1485 6.93262 78.1485C6.60849 78.1485 6.32038 78.2406 6.06828 78.4248C5.81619 78.6089 5.61811 78.8668 5.47405 79.1799C5.33 79.493 5.22196 79.843 5.14993 80.2297C5.0779 80.6165 5.04189 81.0217 5.04189 81.4822C5.04189 81.9242 5.0779 82.3478 5.14993 82.7346C5.22196 83.1214 5.33 83.4713 5.49206 83.7844C5.63612 84.0976 5.83419 84.337 6.08629 84.5212C6.33839 84.7054 6.6265 84.7975 6.95063 84.7975C7.16671 84.7975 7.38279 84.7606 7.59888 84.6685C7.81496 84.5949 7.99503 84.4659 8.13908 84.3186C8.37317 84.1344 8.53524 83.9134 8.62527 83.6371C8.71531 83.3608 8.78733 82.9741 8.84136 82.4583H9.05744C9.05744 83.6187 9.07545 84.4291 9.09345 84.8895H8.87737C8.85936 84.6869 8.82335 84.5396 8.80534 84.4475C8.76933 84.3554 8.71531 84.3186 8.66129 84.3186C8.60727 84.3186 8.53524 84.337 8.46321 84.3923C8.1751 84.5949 7.90499 84.7606 7.6529 84.8527C7.4008 84.9448 7.07667 85.0185 6.71653 85.0185C6.06828 85.0185 5.51007 84.8895 5.02388 84.6133C4.53769 84.337 4.15955 83.9318 3.88944 83.4161C3.60133 82.8635 3.45728 82.2373 3.45728 81.5006Z" fill="white"/>
<path d="M10.5161 81.5006C10.5161 80.7823 10.6602 80.1561 10.9483 79.6035C11.2364 79.051 11.6325 78.6274 12.1367 78.3327C12.6409 78.038 13.2172 77.8906 13.8654 77.8906C14.8738 77.8906 15.6841 78.2037 16.2963 78.83C16.9086 79.4562 17.1967 80.3034 17.1967 81.4085C17.1967 82.1268 17.0526 82.753 16.7645 83.3056C16.4764 83.8581 16.0803 84.2817 15.5761 84.5764C15.0719 84.8711 14.4957 85.0185 13.8474 85.0185C13.1811 85.0185 12.6049 84.8895 12.1007 84.6133C11.5965 84.337 11.2184 83.9318 10.9303 83.4161C10.6422 82.8635 10.5161 82.2373 10.5161 81.5006ZM12.0827 81.4638C12.0827 82.4768 12.2628 83.2872 12.6049 83.895C12.9471 84.5212 13.3792 84.8159 13.8834 84.8159C14.4056 84.8159 14.8198 84.5028 15.1439 83.8765C15.468 83.2503 15.6301 82.4215 15.6301 81.4085C15.6301 80.3955 15.45 79.5851 15.1079 78.9773C14.7658 78.3695 14.3336 78.0564 13.8114 78.0564C13.2892 78.0564 12.875 78.3695 12.5509 78.9957C12.2448 79.6404 12.0827 80.4508 12.0827 81.4638Z" fill="white"/>
<path d="M18.2229 84.8711V84.6685C18.511 84.6317 18.7091 84.5212 18.7991 84.3554C18.8892 84.1896 18.9252 83.8765 18.9252 83.3976V79.051C18.9252 78.8668 18.9252 78.7194 18.9072 78.6273C18.8892 78.5352 18.8531 78.4431 18.7991 78.3879C18.7451 78.3326 18.6731 78.2774 18.583 78.259C18.493 78.2405 18.385 78.2221 18.2229 78.2221V78.0195C18.421 78.0379 18.6911 78.0564 19.0512 78.0564C19.3753 78.0564 19.6454 78.0379 19.8615 78.0195L23.5169 82.6241V79.6035C23.5169 79.3641 23.5169 79.1799 23.4989 79.051C23.4809 78.922 23.4629 78.7931 23.4269 78.6826C23.3909 78.5721 23.3369 78.48 23.2648 78.4247C23.1928 78.3695 23.1028 78.3142 22.9947 78.2958C22.8867 78.259 22.7426 78.2406 22.5806 78.2221V78.0195C22.8327 78.0379 23.1748 78.0564 23.607 78.0564C23.9491 78.0564 24.2372 78.0379 24.4353 78.0195V78.2221C24.1472 78.259 23.9491 78.3695 23.8591 78.5352C23.769 78.701 23.733 79.0141 23.733 79.493V84.8895C23.679 84.8895 23.607 84.8895 23.4989 84.8895C23.3909 84.8895 23.3009 84.8895 23.2468 84.8895L19.1413 79.5667V83.2687C19.1413 83.5082 19.1413 83.6923 19.1593 83.8213C19.1773 83.9502 19.1953 84.0791 19.2313 84.1896C19.2673 84.3001 19.3213 84.3922 19.3934 84.4475C19.4654 84.5027 19.5554 84.558 19.6635 84.5764C19.7715 84.5948 19.9156 84.6317 20.0776 84.6501V84.8527C19.8435 84.8343 19.5014 84.8158 19.0512 84.8158C18.6911 84.8527 18.421 84.8527 18.2229 84.8711Z" fill="white"/>
<path d="M25.6057 84.9449C25.6237 84.5397 25.6417 83.6741 25.6417 82.3295H25.8578C25.8758 82.6058 25.9118 82.8453 25.9478 83.0847C25.9839 83.3241 26.0559 83.5267 26.1459 83.7478C26.236 83.9688 26.344 84.1345 26.47 84.2819C26.5961 84.4292 26.7582 84.5397 26.9382 84.6318C27.1183 84.7239 27.3344 84.7608 27.5865 84.7608C27.9286 84.7608 28.1987 84.6687 28.4148 84.4845C28.6309 84.3003 28.7389 84.024 28.7389 83.6741C28.7389 83.4899 28.7029 83.3057 28.6489 83.1399C28.5769 82.9742 28.4868 82.8268 28.3428 82.6795C28.1987 82.5321 28.0547 82.4032 27.9106 82.2927C27.7665 82.1822 27.5685 82.0533 27.3344 81.8875C27.1723 81.7954 27.0463 81.7033 26.9562 81.6297C26.8662 81.556 26.7401 81.4823 26.6141 81.3718C26.4881 81.2613 26.38 81.1692 26.29 81.0955C26.1999 81.0219 26.1279 80.9113 26.0199 80.8008C25.9298 80.6903 25.8578 80.5798 25.8038 80.4693C25.7498 80.3588 25.7138 80.2299 25.6777 80.1009C25.6417 79.972 25.6237 79.8247 25.6237 79.6773C25.6237 79.3826 25.6777 79.1248 25.8038 78.8853C25.9118 78.6643 26.0739 78.4617 26.272 78.3328C26.47 78.2039 26.7041 78.0934 26.9562 78.0197C27.2083 77.946 27.4784 77.9092 27.7665 77.9092C27.9826 77.9092 28.1987 77.9276 28.3788 77.9644C28.5589 78.0013 28.7029 78.0565 28.7929 78.0934C28.883 78.1302 28.991 78.2039 29.1171 78.2775C29.2611 78.3696 29.3692 78.4065 29.4232 78.4065C29.4772 78.4065 29.5312 78.3696 29.5492 78.3144C29.5852 78.2407 29.6033 78.1486 29.6213 77.9829H29.8373C29.8013 78.3881 29.7833 79.1248 29.7833 80.193H29.5672C29.5492 79.9352 29.5132 79.6773 29.4232 79.4379C29.3512 79.1985 29.2431 78.9774 29.1171 78.7748C28.991 78.5722 28.829 78.4249 28.6309 78.296C28.4328 78.1855 28.2167 78.1118 27.9826 78.1118C27.6765 78.1118 27.4424 78.2039 27.2443 78.3696C27.0463 78.5538 26.9562 78.7933 26.9562 79.0879C26.9562 79.1616 26.9562 79.2353 26.9742 79.309C26.9922 79.3826 27.0103 79.4379 27.0103 79.4931C27.0283 79.5484 27.0643 79.6037 27.1003 79.6773C27.1543 79.751 27.1903 79.8063 27.2083 79.8431C27.2443 79.8799 27.2804 79.9352 27.3704 80.0089C27.4604 80.0825 27.4964 80.1378 27.5325 80.1562C27.5685 80.193 27.6405 80.2483 27.7485 80.322C27.8566 80.3956 27.9286 80.4509 27.9826 80.4877C28.0367 80.5246 28.1267 80.5798 28.2527 80.6903C28.3968 80.7824 28.4868 80.8561 28.5408 80.8929C28.7389 81.0403 28.901 81.1692 29.027 81.2613C29.1531 81.3534 29.2971 81.4823 29.4412 81.6297C29.6033 81.777 29.7113 81.9059 29.8013 82.0533C29.8914 82.2006 29.9454 82.348 30.0174 82.5137C30.0714 82.6979 30.1075 82.8821 30.1075 83.0847C30.1075 83.4899 29.9994 83.8398 29.7833 84.1345C29.5672 84.4292 29.2971 84.6318 28.955 84.7608C28.6129 84.8897 28.2347 84.9633 27.8026 84.9633C27.4604 84.9633 27.1543 84.9265 26.9382 84.8713C26.7041 84.7976 26.4881 84.7239 26.29 84.6134C26.1459 84.5213 26.0379 84.4845 25.9659 84.4845C25.9118 84.4845 25.8578 84.5213 25.8218 84.595C25.7858 84.6687 25.7678 84.7792 25.7498 84.9265H25.6057V84.9449Z" fill="white"/>
<path d="M31.2241 78.0195C31.8003 78.0379 32.7727 78.0564 34.1412 78.0564C35.5098 78.0564 36.4822 78.0379 37.0584 78.0195C37.0044 78.6089 36.9863 79.1615 36.9863 79.6588C36.9863 79.9719 37.0044 80.2113 37.0224 80.3955H36.8063C36.6442 79.6035 36.4461 79.0325 36.176 78.7194C35.9059 78.4063 35.5638 78.2405 35.1136 78.2405H34.8975V83.766C34.8975 83.9686 34.9155 84.1344 34.9336 84.2449C34.9516 84.3554 35.0056 84.4475 35.0956 84.5212C35.1676 84.5948 35.2757 84.6317 35.4017 84.6501C35.5278 84.6685 35.6898 84.6869 35.9239 84.6869V84.8895C35.3837 84.8711 34.7895 84.8527 34.1232 84.8527C33.475 84.8527 32.8988 84.8711 32.3946 84.8895V84.6869C32.6107 84.6869 32.7907 84.6685 32.9168 84.6501C33.0428 84.6317 33.1329 84.5948 33.2229 84.5212C33.2949 84.4475 33.3489 84.3554 33.385 84.2449C33.403 84.1344 33.421 83.9686 33.421 83.766V78.2405H33.2049C32.7547 78.2405 32.3946 78.4063 32.1245 78.7194C31.8544 79.0325 31.6563 79.6035 31.4942 80.3955H31.2781C31.2961 80.2113 31.3142 79.9719 31.3142 79.6588C31.2961 79.1983 31.2781 78.6458 31.2241 78.0195Z" fill="white"/>
<path d="M37.9946 84.8711V84.6685C38.1567 84.6685 38.2827 84.6501 38.3548 84.6317C38.4448 84.6132 38.5168 84.5764 38.5709 84.5027C38.6249 84.4475 38.6609 84.3554 38.6789 84.2633C38.6969 84.1712 38.6969 84.0239 38.6969 83.8397V79.051C38.6969 78.8668 38.6969 78.7194 38.6789 78.6273C38.6609 78.5352 38.6249 78.4431 38.5709 78.3879C38.5168 78.3326 38.4448 78.2774 38.3548 78.259C38.2647 78.2405 38.1567 78.2221 37.9946 78.2221V78.0195C38.3188 78.0379 38.7869 78.0564 39.4352 78.0564C39.6693 78.0564 39.9754 78.0564 40.3175 78.038C40.6777 78.038 40.8757 78.0195 40.9118 78.0195C41.7761 78.0195 42.4243 78.1669 42.8745 78.4616C43.3067 78.7563 43.5408 79.1799 43.5408 79.714C43.5408 79.8798 43.5228 80.0455 43.4868 80.1929C43.4507 80.3402 43.3787 80.506 43.2707 80.6533C43.1626 80.8007 43.0366 80.948 42.8925 81.0585C42.7305 81.1875 42.5324 81.2795 42.2803 81.3716C42.0282 81.4637 41.7401 81.5374 41.416 81.5742C41.9922 81.6295 42.4063 81.74 42.6944 81.9426C42.9645 82.1452 43.1446 82.4399 43.2347 82.8451L43.4507 83.8397C43.5048 84.0975 43.5588 84.2817 43.6308 84.3738C43.7028 84.4659 43.7929 84.5212 43.9009 84.5212C44.045 84.5212 44.171 84.4475 44.2791 84.3001L44.4051 84.4106C44.243 84.6132 44.045 84.7606 43.8649 84.8343C43.6668 84.9264 43.4327 84.9632 43.1626 84.9632C42.8025 84.9632 42.5144 84.8895 42.2983 84.7238C42.0822 84.558 41.9382 84.3001 41.8841 83.9134L41.7041 82.9556C41.668 82.7714 41.65 82.6241 41.614 82.4952C41.596 82.3662 41.56 82.2557 41.506 82.1268C41.452 81.9979 41.4159 81.9058 41.3439 81.8321C41.2899 81.7584 41.2179 81.7032 41.1278 81.6479C41.0378 81.6111 40.9298 81.5742 40.8217 81.5742H40.2095V83.8028C40.2095 83.987 40.2095 84.1344 40.2275 84.2265C40.2455 84.3186 40.2815 84.4106 40.3355 84.4659C40.3896 84.5212 40.4616 84.5764 40.5516 84.5948C40.6417 84.6132 40.7497 84.6317 40.9118 84.6317V84.8343C40.5696 84.8158 40.1014 84.7974 39.4892 84.7974C38.8229 84.8527 38.3188 84.8527 37.9946 84.8711ZM40.2095 81.4269H40.6236C40.8397 81.4269 41.0378 81.3901 41.1999 81.3348C41.3619 81.2796 41.488 81.2059 41.596 81.1138C41.6861 81.0217 41.7761 80.9112 41.8301 80.7638C41.8841 80.6165 41.9382 80.4876 41.9562 80.3218C41.9742 80.1745 41.9922 80.0087 41.9922 79.8061C41.9922 79.272 41.9021 78.8852 41.7221 78.6089C41.542 78.3326 41.2359 78.2037 40.8217 78.2037C40.5876 78.2037 40.4256 78.259 40.3535 78.3695C40.2815 78.48 40.2455 78.701 40.2455 79.0325V81.4269H40.2095Z" fill="white"/>
<path d="M44.7473 78.222V78.0194C45.0714 78.0378 45.5576 78.0562 46.2239 78.0562C46.8721 78.0562 47.3583 78.0378 47.7185 78.0194V78.222C47.4844 78.2404 47.3223 78.2588 47.2323 78.2957C47.1422 78.3325 47.0702 78.4062 47.0162 78.5167C46.9802 78.6272 46.9622 78.8114 46.9622 79.0508V82.6976C46.9622 83.3791 47.0522 83.8764 47.2503 84.1895C47.4484 84.5026 47.7725 84.6684 48.2587 84.6684C48.5108 84.6684 48.7449 84.6315 48.9429 84.5394C49.141 84.4658 49.3031 84.3553 49.4291 84.2079C49.5552 84.0606 49.6632 83.8948 49.7532 83.6738C49.8433 83.4528 49.8973 83.2317 49.9333 82.9923C49.9693 82.7529 49.9873 82.4766 49.9873 82.1635V79.6034C49.9873 79.3271 49.9693 79.1061 49.9513 78.9403C49.9333 78.793 49.8793 78.6456 49.8253 78.5351C49.7713 78.4246 49.6632 78.3509 49.5552 78.2957C49.4471 78.2404 49.2851 78.222 49.069 78.2036V78.001C49.3211 78.0194 49.6632 78.0378 50.0954 78.0378C50.4555 78.0378 50.7256 78.0194 50.9237 78.001V78.2036C50.6356 78.2404 50.4375 78.3509 50.3475 78.5167C50.2574 78.6824 50.2214 78.9956 50.2214 79.4744V82.0346C50.2214 82.9555 50.0954 83.6369 49.8433 84.079C49.5011 84.6868 48.8529 84.9815 47.9345 84.9815C47.1963 84.9815 46.638 84.8157 46.2239 84.4842C45.9358 84.2447 45.7377 83.9501 45.6297 83.5817C45.5216 83.2133 45.4856 82.716 45.4856 82.053V79.014C45.4856 78.8298 45.4856 78.6825 45.4676 78.5904C45.4496 78.4983 45.4136 78.4062 45.3595 78.3509C45.3055 78.2957 45.2335 78.2404 45.1435 78.222C45.0354 78.2404 44.9094 78.222 44.7473 78.222Z" fill="white"/>
<path d="M51.8059 81.5006C51.8059 80.7823 51.95 80.1561 52.2201 79.6035C52.4902 79.051 52.8683 78.6274 53.3725 78.3327C53.8587 78.038 54.4169 77.8906 55.0472 77.8906C55.4253 77.8906 55.7494 77.9459 56.0015 78.0564C56.2716 78.1669 56.5237 78.3142 56.7758 78.5168C56.8479 78.5721 56.9019 78.6089 56.9559 78.6089C57.0819 78.6089 57.172 78.4248 57.208 78.038H57.4241C57.4061 78.48 57.3881 79.2536 57.3881 80.3771H57.172C57.118 79.8982 57.0459 79.5298 56.9559 79.2904C56.8659 79.0326 56.7038 78.83 56.4697 78.6274C56.1456 78.3142 55.7494 78.1485 55.2813 78.1485C54.9571 78.1485 54.669 78.2406 54.4169 78.4248C54.1648 78.6089 53.9667 78.8668 53.8227 79.1799C53.6786 79.493 53.5706 79.843 53.4986 80.2297C53.4265 80.6165 53.3905 81.0217 53.3905 81.4822C53.3905 81.9242 53.4265 82.3478 53.4986 82.7346C53.5706 83.1214 53.6786 83.4713 53.8407 83.7844C53.9848 84.0976 54.1828 84.337 54.4349 84.5212C54.687 84.7054 54.9751 84.7975 55.2993 84.7975C55.5153 84.7975 55.7314 84.7606 55.9475 84.6685C56.1636 84.5949 56.3437 84.4659 56.4877 84.3186C56.7218 84.1344 56.8839 83.9134 56.9739 83.6371C57.0639 83.3608 57.136 82.9741 57.19 82.4583H57.4061C57.4061 83.6187 57.4241 84.4291 57.4421 84.8895H57.226C57.208 84.6869 57.172 84.5396 57.154 84.4475C57.118 84.3554 57.0639 84.3186 57.0099 84.3186C56.9559 84.3186 56.8839 84.337 56.8118 84.3923C56.5237 84.5949 56.2536 84.7606 56.0015 84.8527C55.7494 84.9448 55.4253 85.0185 55.0652 85.0185C54.4169 85.0185 53.8587 84.8895 53.3725 84.6133C52.8863 84.337 52.5082 83.9318 52.2381 83.4161C51.95 82.8635 51.8059 82.2373 51.8059 81.5006Z" fill="white"/>
<path d="M58.6846 78.0195C59.2608 78.0379 60.2332 78.0564 61.6017 78.0564C62.9702 78.0564 63.9426 78.0379 64.5188 78.0195C64.4648 78.6089 64.4468 79.1615 64.4468 79.6588C64.4468 79.9719 64.4648 80.2113 64.4828 80.3955H64.2667C64.1047 79.6035 63.9066 79.0325 63.6365 78.7194C63.3664 78.4063 63.0242 78.2405 62.5741 78.2405H62.358V83.766C62.358 83.9686 62.376 84.1344 62.394 84.2449C62.412 84.3554 62.466 84.4475 62.5561 84.5212C62.6281 84.5948 62.7361 84.6317 62.8622 84.6501C62.9882 84.6685 63.1503 84.6869 63.3844 84.6869V84.8895C62.8442 84.8711 62.2499 84.8527 61.5837 84.8527C60.9354 84.8527 60.3592 84.8711 59.855 84.8895V84.6869C60.0711 84.6869 60.2512 84.6685 60.3772 84.6501C60.5033 84.6317 60.5933 84.5948 60.6833 84.5212C60.7554 84.4475 60.8094 84.3554 60.8454 84.2449C60.8634 84.1344 60.8814 83.9686 60.8814 83.766V78.2405H60.6653C60.2152 78.2405 59.855 78.4063 59.5849 78.7194C59.3148 79.0325 59.1167 79.6035 58.9547 80.3955H58.7386C58.7566 80.2113 58.7746 79.9719 58.7746 79.6588C58.7566 79.1983 58.7386 78.6458 58.6846 78.0195Z" fill="white"/>
<path d="M65.5452 81.5006C65.5452 80.7823 65.6892 80.1561 65.9773 79.6035C66.2654 79.051 66.6616 78.6274 67.1658 78.3327C67.67 78.038 68.2462 77.8906 68.8945 77.8906C69.9029 77.8906 70.7132 78.2037 71.3254 78.83C71.9376 79.4562 72.2257 80.3034 72.2257 81.4085C72.2257 82.1268 72.0817 82.753 71.7936 83.3056C71.5055 83.8581 71.1093 84.2817 70.6051 84.5764C70.1009 84.8711 69.5247 85.0185 68.8765 85.0185C68.2102 85.0185 67.634 84.8895 67.1298 84.6133C66.6256 84.337 66.2474 83.9318 65.9593 83.4161C65.6892 82.8635 65.5452 82.2373 65.5452 81.5006ZM67.1118 81.4638C67.1118 82.4768 67.2918 83.2872 67.634 83.895C67.9761 84.5212 68.4083 84.8159 68.9125 84.8159C69.4347 84.8159 69.8488 84.5028 70.173 83.8765C70.4971 83.2503 70.6591 82.4215 70.6591 81.4085C70.6591 80.3955 70.4791 79.5851 70.1369 78.9773C69.7948 78.3695 69.3626 78.0564 68.8404 78.0564C68.3182 78.0564 67.9041 78.3695 67.5799 78.9957C67.2738 79.6404 67.1118 80.4508 67.1118 81.4638Z" fill="white"/>
<path d="M73.2522 84.8711V84.6685C73.4143 84.6685 73.5403 84.6501 73.6123 84.6317C73.7024 84.6132 73.7744 84.5764 73.8284 84.5027C73.8824 84.4475 73.9185 84.3554 73.9365 84.2633C73.9545 84.1712 73.9545 84.0239 73.9545 83.8397V79.051C73.9545 78.8668 73.9545 78.7194 73.9365 78.6273C73.9185 78.5352 73.8824 78.4431 73.8284 78.3879C73.7744 78.3326 73.7024 78.2774 73.6123 78.259C73.5223 78.2405 73.4143 78.2221 73.2522 78.2221V78.0195C73.5763 78.0379 74.0445 78.0564 74.6928 78.0564C74.9268 78.0564 75.233 78.0564 75.5751 78.038C75.9352 78.038 76.1333 78.0195 76.1693 78.0195C77.0337 78.0195 77.6819 78.1669 78.1321 78.4616C78.5643 78.7563 78.7983 79.1799 78.7983 79.714C78.7983 79.8798 78.7803 80.0455 78.7443 80.1929C78.7083 80.3402 78.6363 80.506 78.5282 80.6533C78.4202 80.8007 78.2941 80.948 78.1501 81.0585C77.988 81.1875 77.79 81.2795 77.5379 81.3716C77.2858 81.4637 76.9976 81.5374 76.6735 81.5742C77.2497 81.6295 77.6639 81.74 77.952 81.9426C78.2221 82.1452 78.4022 82.4399 78.4922 82.8451L78.7083 83.8397C78.7623 84.0975 78.8163 84.2817 78.8884 84.3738C78.9604 84.4659 79.0504 84.5212 79.1585 84.5212C79.3025 84.5212 79.4286 84.4475 79.5366 84.3001L79.6627 84.4106C79.5006 84.6132 79.3025 84.7606 79.1225 84.8343C78.9244 84.9264 78.6903 84.9632 78.4202 84.9632C78.0601 84.9632 77.7719 84.8895 77.5559 84.7238C77.3398 84.558 77.1957 84.3001 77.1417 83.9134L76.9616 82.9556C76.9256 82.7714 76.9076 82.6241 76.8716 82.4952C76.8536 82.3662 76.8176 82.2557 76.7636 82.1268C76.7095 81.9979 76.6735 81.9058 76.6015 81.8321C76.5475 81.7584 76.4754 81.7032 76.3854 81.6479C76.2954 81.6111 76.1873 81.5742 76.0793 81.5742H75.4671V83.8028C75.4671 83.987 75.4671 84.1344 75.4851 84.2265C75.5031 84.3186 75.5391 84.4106 75.5931 84.4659C75.6471 84.5212 75.7192 84.5764 75.8092 84.5948C75.8992 84.6132 76.0073 84.6317 76.1693 84.6317V84.8343C75.8272 84.8158 75.359 84.7974 74.7468 84.7974C74.0625 84.8527 73.5583 84.8527 73.2522 84.8711ZM75.4671 81.4269H75.8812C76.0973 81.4269 76.2954 81.3901 76.4574 81.3348C76.6195 81.2796 76.7455 81.2059 76.8536 81.1138C76.9436 81.0217 77.0337 80.9112 77.0877 80.7638C77.1417 80.6165 77.1957 80.4876 77.2137 80.3218C77.2317 80.1745 77.2497 80.0087 77.2497 79.8061C77.2497 79.272 77.1597 78.8852 76.9796 78.6089C76.7996 78.3326 76.4935 78.2037 76.0793 78.2037C75.8452 78.2037 75.6831 78.259 75.6111 78.3695C75.5391 78.48 75.5031 78.701 75.5031 79.0325V81.4269H75.4671Z" fill="white"/>
<path d="M80.365 84.9449C80.383 84.5397 80.401 83.6741 80.401 82.3295H80.6171C80.6351 82.6058 80.6711 82.8453 80.7071 83.0847C80.7431 83.3241 80.8152 83.5267 80.9052 83.7478C80.9952 83.9688 81.1033 84.1345 81.2293 84.2819C81.3554 84.4292 81.5174 84.5397 81.6975 84.6318C81.8776 84.7239 82.0937 84.7608 82.3458 84.7608C82.6879 84.7608 82.958 84.6687 83.1741 84.4845C83.3902 84.3003 83.4982 84.024 83.4982 83.6741C83.4982 83.4899 83.4622 83.3057 83.4082 83.1399C83.3361 82.9742 83.2461 82.8268 83.102 82.6795C82.958 82.5321 82.8139 82.4032 82.6699 82.2927C82.5258 82.1822 82.3277 82.0533 82.0937 81.8875C81.9316 81.7954 81.8055 81.7033 81.7155 81.6297C81.6255 81.556 81.4994 81.4823 81.3734 81.3718C81.2473 81.2613 81.1393 81.1692 81.0493 81.0955C80.9592 81.0219 80.8872 80.9113 80.7792 80.8008C80.6891 80.6903 80.6171 80.5798 80.5631 80.4693C80.509 80.3588 80.473 80.2299 80.437 80.1009C80.401 79.972 80.383 79.8247 80.383 79.6773C80.383 79.3826 80.437 79.1248 80.5631 78.8853C80.6711 78.6643 80.8332 78.4617 81.0312 78.3328C81.2293 78.2039 81.4634 78.0934 81.7155 78.0197C81.9676 77.946 82.2377 77.9092 82.5258 77.9092C82.7419 77.9092 82.958 77.9276 83.1381 77.9644C83.3181 78.0013 83.4622 78.0565 83.5522 78.0934C83.6423 78.1302 83.7503 78.2039 83.8763 78.2775C84.0204 78.3696 84.1284 78.4065 84.1825 78.4065C84.2365 78.4065 84.2905 78.3696 84.3085 78.3144C84.3445 78.2407 84.3625 78.1486 84.3805 77.9829H84.5966C84.5606 78.3881 84.5426 79.1248 84.5426 80.193H84.3265C84.3085 79.9352 84.2725 79.6773 84.1825 79.4379C84.1104 79.1985 84.0024 78.9774 83.8763 78.7748C83.7503 78.5722 83.5882 78.4249 83.3902 78.296C83.1921 78.1855 82.976 78.1118 82.7419 78.1118C82.4358 78.1118 82.2017 78.2039 82.0036 78.3696C81.8055 78.5538 81.7155 78.7933 81.7155 79.0879C81.7155 79.1616 81.7155 79.2353 81.7335 79.309C81.7515 79.3826 81.7695 79.4379 81.7695 79.4931C81.7875 79.5484 81.8236 79.6037 81.8596 79.6773C81.9136 79.751 81.9496 79.8063 81.9676 79.8431C82.0036 79.8799 82.0396 79.9352 82.1297 80.0089C82.2197 80.0825 82.2557 80.1378 82.2917 80.1562C82.3278 80.193 82.3998 80.2483 82.5078 80.322C82.6159 80.3956 82.6879 80.4509 82.7419 80.4877C82.7959 80.5246 82.886 80.5798 83.012 80.6903C83.1561 80.7824 83.2461 80.8561 83.3001 80.8929C83.4982 81.0403 83.6603 81.1692 83.7863 81.2613C83.9124 81.3534 84.0564 81.4823 84.2005 81.6297C84.3625 81.777 84.4706 81.9059 84.5606 82.0533C84.6506 82.2006 84.7047 82.348 84.7767 82.5137C84.8307 82.6979 84.8667 82.8821 84.8667 83.0847C84.8667 83.4899 84.7587 83.8398 84.5426 84.1345C84.3265 84.4292 84.0564 84.6318 83.7143 84.7608C83.3722 84.8897 82.994 84.9633 82.5618 84.9633C82.2197 84.9633 81.9136 84.9265 81.6975 84.8713C81.4634 84.7976 81.2473 84.7239 81.0493 84.6134C80.9052 84.5213 80.7972 84.4845 80.7251 84.4845C80.6711 84.4845 80.6171 84.5213 80.5811 84.595C80.5451 84.6687 80.5271 84.7792 80.509 84.9265H80.365V84.9449Z" fill="white"/>
<path d="M11.7045 23.4096L11.5424 23.2254C11.6864 23.0781 11.7945 22.9492 11.8665 22.8571C11.9385 22.765 11.9565 22.6545 11.9565 22.544C11.9565 22.4335 11.9205 22.3229 11.8485 22.2124C11.7765 22.1019 11.6684 21.9546 11.5064 21.7704L7.29274 17.0369C7.13068 16.8527 7.00463 16.7238 6.89659 16.6501C6.78855 16.558 6.68051 16.5212 6.57247 16.5028C6.46442 16.4844 6.35638 16.5212 6.24834 16.5765C6.1403 16.6317 6.01425 16.7238 5.85219 16.8712L5.67212 16.6686C5.99624 16.3923 6.48243 15.9687 7.11268 15.3793C7.34677 15.1583 7.63488 14.882 7.97701 14.5505C8.31914 14.2189 8.51722 14.0348 8.55323 13.9795C9.39956 13.1875 10.1739 12.7271 10.8761 12.6166C11.5784 12.506 12.1546 12.7086 12.6228 13.2428C12.7669 13.4085 12.8929 13.5743 12.9829 13.7769C13.073 13.9795 13.145 14.1821 13.181 14.4215C13.217 14.661 13.217 14.9188 13.163 15.1767C13.109 15.4345 13.019 15.7292 12.8389 16.0608C12.6768 16.3739 12.4427 16.7054 12.1726 17.0369C12.7849 16.558 13.3071 16.3002 13.7572 16.2449C14.2074 16.1897 14.6396 16.3186 15.0898 16.6317L16.1702 17.4237C16.4583 17.6263 16.6744 17.7552 16.8184 17.7921C16.9625 17.8289 17.1065 17.7921 17.2146 17.6816C17.3406 17.5526 17.4127 17.3685 17.3946 17.1106H17.6287C17.6287 17.4605 17.5747 17.7737 17.4667 18.0315C17.3586 18.2894 17.1606 18.5656 16.8905 18.8051C16.5303 19.1366 16.1882 19.3208 15.8461 19.3576C15.5039 19.3945 15.1258 19.2655 14.7116 18.9524L13.6852 18.1789C13.4871 18.0315 13.3251 17.9026 13.199 17.8105C13.073 17.7184 12.9289 17.6263 12.7669 17.5342C12.6048 17.4421 12.4787 17.4053 12.3527 17.3869C12.2267 17.3685 12.1006 17.3869 11.9746 17.4237C11.8485 17.4605 11.7225 17.5342 11.6144 17.6447L11.0022 18.2157L12.9649 20.4075C13.127 20.5916 13.253 20.7206 13.3611 20.7942C13.4691 20.8863 13.5772 20.9232 13.6852 20.9416C13.7933 20.96 13.9013 20.9232 14.0093 20.8679C14.1174 20.8127 14.2434 20.7021 14.4055 20.5732L14.5676 20.7574C14.2074 21.0521 13.7392 21.4757 13.127 22.0467C12.4787 22.6361 12.0106 23.0965 11.7045 23.4096ZM10.8581 17.9947L11.2543 17.6263C11.4704 17.4237 11.6324 17.2211 11.7405 17.0185C11.8485 16.8159 11.9205 16.6133 11.9205 16.4475C11.9205 16.2818 11.9205 16.0792 11.8485 15.8766C11.7765 15.6924 11.7045 15.5082 11.5784 15.3424C11.4704 15.1767 11.3263 14.9925 11.1642 14.8083C10.6961 14.2926 10.2639 13.9795 9.83173 13.8874C9.41757 13.7953 9.00341 13.9242 8.58925 14.311C8.35516 14.532 8.24711 14.7346 8.26512 14.9004C8.28313 15.0662 8.44519 15.324 8.7333 15.6556L10.8581 17.9947Z" fill="white"/>
<path d="M18.313 17.4235L18.187 17.2024C18.3671 17.0735 18.4931 16.9814 18.5831 16.8893C18.6552 16.8157 18.7092 16.7052 18.7452 16.5946C18.7632 16.4841 18.7452 16.3736 18.7092 16.2447C18.6552 16.1158 18.5651 15.95 18.4391 15.7474L15.1618 10.2956C15.0358 10.093 14.9277 9.92726 14.8557 9.83517C14.7657 9.72466 14.6756 9.6694 14.5676 9.63257C14.4595 9.59573 14.3515 9.59573 14.2435 9.63257C14.1354 9.6694 13.9914 9.74307 13.7933 9.85358L13.6672 9.63257C14.4595 9.17211 15.63 8.4538 17.1966 7.47764C18.259 6.81458 18.9973 6.33571 19.4295 6.04102C19.7356 6.68565 20.0417 7.2382 20.3298 7.71707C20.5279 8.03018 20.6719 8.26962 20.798 8.4538L20.5459 8.60115C19.9697 7.88284 19.4475 7.45922 18.9793 7.31187C18.5111 7.16453 18.0249 7.25662 17.5027 7.56973L17.0525 7.846C16.7284 8.0486 16.5664 8.21436 16.5303 8.36171C16.4943 8.50906 16.5844 8.74849 16.7824 9.09844L18.4031 11.8243L18.7452 11.6033C18.9073 11.4928 19.0333 11.3823 19.1414 11.2165C19.2494 11.0508 19.3034 10.9218 19.3394 10.7745C19.3754 10.6271 19.3754 10.4614 19.3754 10.2772C19.3754 10.093 19.3394 9.92726 19.3034 9.79833C19.2674 9.65098 19.2314 9.50364 19.1594 9.35629L19.4115 9.20895C19.6095 9.59573 19.7896 9.94567 19.9877 10.2772C20.0237 10.3509 20.0957 10.443 20.1497 10.5535C20.2218 10.664 20.2758 10.7561 20.2938 10.7929C20.5099 11.1613 20.852 11.677 21.2842 12.3216L21.0321 12.469C20.3118 11.5849 19.5915 11.3639 18.8532 11.8243L18.5111 12.0453L20.1677 14.8265C20.3658 15.158 20.5459 15.3606 20.6899 15.3975C20.834 15.4343 21.0681 15.3606 21.3742 15.158L21.8964 14.8265C22.4006 14.5134 22.7067 14.0714 22.8148 13.5188C22.9228 12.9663 22.7788 12.2295 22.4006 11.2902L22.6527 11.1429C22.7788 11.4007 22.9408 11.7138 23.1749 12.0822C23.535 12.6716 23.8952 13.2241 24.2373 13.703C23.7331 13.9793 22.9048 14.495 21.7524 15.2133C20.2398 16.171 19.0693 16.9078 18.313 17.4235Z" fill="white"/>
<path d="M25.5699 13.1877C25.4078 12.6719 25.0116 11.5853 24.3994 9.92763L24.6695 9.81712C24.8136 10.1487 24.9756 10.4433 25.1377 10.7012C25.2997 10.9591 25.4978 11.1985 25.6959 11.4195C25.912 11.6405 26.1281 11.8063 26.3441 11.9352C26.5782 12.0641 26.8303 12.1194 27.1004 12.1378C27.3705 12.1562 27.6587 12.101 27.9648 11.9905C28.3789 11.8247 28.6851 11.5669 28.8651 11.2353C29.0452 10.9038 29.0452 10.517 28.8831 10.075C28.7931 9.83554 28.667 9.63294 28.523 9.46718C28.3609 9.30141 28.1629 9.15407 27.9288 9.04356C27.6767 8.93305 27.4426 8.84096 27.2085 8.76729C26.9744 8.69361 26.6683 8.61994 26.3081 8.54627C26.074 8.49101 25.876 8.45418 25.7139 8.41734C25.5518 8.38051 25.3718 8.34367 25.1557 8.27C24.9396 8.21474 24.7595 8.14107 24.6155 8.08581C24.4714 8.03056 24.3274 7.95689 24.1473 7.84638C23.9672 7.73587 23.8412 7.64378 23.7151 7.53327C23.6071 7.42276 23.499 7.29383 23.391 7.12807C23.283 6.98072 23.1929 6.79654 23.1209 6.61236C22.9768 6.24399 22.9228 5.89405 22.9768 5.5441C23.0129 5.19416 23.1209 4.89946 23.301 4.62319C23.481 4.34692 23.7151 4.10748 24.0032 3.90488C24.2914 3.70228 24.5975 3.5181 24.9576 3.37075C25.2457 3.26024 25.4978 3.18657 25.7499 3.14974C26.002 3.1129 26.1821 3.09448 26.3261 3.1129C26.4522 3.13132 26.6143 3.14974 26.8123 3.18657C27.0284 3.22341 27.1905 3.24183 27.2625 3.20499C27.3345 3.16815 27.3705 3.1129 27.3886 3.02081C27.3886 2.92872 27.3705 2.78137 27.3345 2.57877L27.6046 2.46826C27.7487 2.98397 28.0728 3.90488 28.577 5.23099L28.3069 5.3415C28.1629 5.02839 28.0008 4.7337 27.7847 4.47585C27.5866 4.21799 27.3525 3.99697 27.1004 3.81279C26.8483 3.62861 26.5782 3.5181 26.2721 3.46284C25.966 3.40759 25.6779 3.44443 25.3718 3.55494C24.9936 3.70228 24.7235 3.94172 24.5795 4.25483C24.4354 4.56794 24.4174 4.91788 24.5615 5.28625C24.5975 5.37834 24.6335 5.47043 24.6875 5.56252C24.7415 5.63619 24.7775 5.70987 24.8316 5.78354C24.8856 5.83879 24.9396 5.91247 25.0296 5.96772C25.1197 6.02297 25.1917 6.07823 25.2457 6.11507C25.2997 6.1519 25.3898 6.20716 25.5158 6.24399C25.6419 6.29925 25.7319 6.33608 25.8039 6.3545C25.876 6.37292 25.984 6.40976 26.1461 6.46501C26.3081 6.50185 26.4342 6.53868 26.5062 6.5571C26.5782 6.57552 26.7223 6.61236 26.9384 6.66761C27.1545 6.72287 27.2985 6.7597 27.4066 6.77812C27.7307 6.87021 27.9828 6.94388 28.1809 6.99914C28.3789 7.05439 28.613 7.12807 28.8831 7.23858C29.1352 7.34909 29.3513 7.45959 29.5134 7.58852C29.6754 7.71745 29.8375 7.86479 29.9816 8.0674C30.1436 8.27 30.2697 8.49101 30.3597 8.74887C30.5578 9.26458 30.5758 9.74345 30.4497 10.2039C30.3237 10.6644 30.0716 11.0696 29.7115 11.4011C29.3513 11.7326 28.9011 12.0089 28.3789 12.2115C27.9468 12.3773 27.5686 12.4878 27.2445 12.5246C26.9204 12.5614 26.6143 12.5614 26.3261 12.5062C26.1101 12.4693 25.948 12.4693 25.858 12.5062C25.7859 12.543 25.7499 12.5983 25.7319 12.7088C25.7319 12.8009 25.7499 12.9482 25.7859 13.1508L25.5699 13.1877Z" fill="white"/>
<path d="M32.4125 10.5903L32.3584 10.3324C32.5565 10.2772 32.7186 10.2219 32.8266 10.1666C32.9347 10.1114 33.0067 10.0377 33.0607 9.94562C33.1147 9.85353 33.1327 9.7246 33.1327 9.59568C33.1327 9.46675 33.0967 9.28257 33.0427 9.04313L31.6562 2.79936C31.6022 2.55992 31.5481 2.37574 31.5121 2.26523C31.4581 2.13631 31.3861 2.04421 31.296 1.98896C31.206 1.91529 31.098 1.89687 30.9899 1.89687C30.8819 1.89687 30.7198 1.91529 30.5037 1.95212L30.4497 1.69427C30.8639 1.6206 31.5121 1.49167 32.3945 1.28907C33.1868 1.10489 33.817 0.957541 34.2492 0.828613L34.3032 1.08647C34.0871 1.14172 33.9431 1.19698 33.835 1.25223C33.727 1.30749 33.6549 1.38116 33.6009 1.47325C33.5469 1.56534 33.5289 1.69427 33.5289 1.8232C33.5289 1.95212 33.5649 2.13631 33.6189 2.37574L35.0055 8.61951C35.0595 8.85895 35.1135 9.04313 35.1495 9.15364C35.2035 9.28257 35.2756 9.37466 35.3656 9.42991C35.4556 9.50359 35.5637 9.52201 35.6717 9.52201C35.7798 9.52201 35.9418 9.50359 36.1579 9.46675L36.2119 9.7246C35.7618 9.79828 35.1315 9.92721 34.3392 10.1114C33.4569 10.2956 32.8086 10.4613 32.4125 10.5903Z" fill="white"/>
<path d="M37.1484 9.35666L37.1303 9.0988C37.3464 9.08038 37.5085 9.06196 37.6165 9.02513C37.7246 8.98829 37.8146 8.93304 37.8866 8.84095C37.9587 8.74885 37.9947 8.63835 38.0127 8.50942C38.0307 8.38049 38.0307 8.19631 38.0127 7.93845L37.6886 1.54734C37.6706 1.3079 37.6526 1.12372 37.6345 0.994792C37.5985 0.865864 37.5625 0.755355 37.4725 0.681682C37.4005 0.60801 37.2924 0.552755 37.1844 0.534337C37.0763 0.515918 36.9143 0.4975 36.6982 0.4975L36.6802 0.239645C37.2204 0.239645 37.7246 0.221227 38.1928 0.202809C38.2288 0.202809 38.3008 0.202809 38.3908 0.184391C38.4809 0.184391 38.5529 0.165973 38.5889 0.165973C39.7954 0.0738816 40.4436 0.0370452 40.5697 0.018627C42.2083 -0.073464 43.4508 0.239645 44.2971 0.957955C45.1434 1.67627 45.6116 2.76294 45.6837 4.21798C45.7197 4.91787 45.6296 5.56251 45.4316 6.15189C45.2335 6.74127 44.9274 7.23856 44.5312 7.6806C44.1351 8.10422 43.6129 8.45416 43.0006 8.71202C42.3884 8.96987 41.6861 9.11722 40.8938 9.15405C40.7678 9.15405 40.4976 9.17247 40.0295 9.17247C39.5793 9.19089 39.2552 9.19089 39.0391 9.20931C38.2288 9.26456 37.5805 9.3014 37.1484 9.35666ZM40.0295 7.86478C40.0475 8.32524 40.1195 8.61993 40.2636 8.74885C40.3896 8.87778 40.6417 8.95146 41.0379 8.91462C41.5601 8.8962 42.0102 8.76727 42.3524 8.56467C42.7125 8.36207 42.9826 8.04896 43.1807 7.66218C43.3788 7.2754 43.5048 6.79652 43.5768 6.28082C43.6489 5.74669 43.6669 5.12047 43.6309 4.40216C43.5588 2.9287 43.2887 1.86045 42.8025 1.19739C42.3344 0.534337 41.5961 0.221227 40.5877 0.276482C40.2095 0.2949 39.9574 0.386991 39.8494 0.534337C39.7414 0.681682 39.6873 0.976373 39.7053 1.43683L40.0295 7.86478Z" fill="white"/>
<path d="M46.908 9.02492L46.944 8.76706C47.1601 8.78548 47.3221 8.8039 47.4302 8.78548C47.5382 8.76707 47.6462 8.73023 47.7363 8.65656C47.8263 8.58288 47.8803 8.49079 47.9344 8.36187C47.9704 8.23294 48.0064 8.04875 48.0424 7.80932L48.9968 1.49187C49.0328 1.25244 49.0508 1.06826 49.0508 0.939328C49.0508 0.810401 49.0148 0.699892 48.9608 0.589383C48.9067 0.497292 48.8167 0.423619 48.7087 0.386782C48.6006 0.349946 48.4385 0.294691 48.2405 0.257855L48.2765 0C49.1768 0.165764 50.5274 0.386782 52.3281 0.681474C53.5525 0.865656 54.4169 0.994583 54.9391 1.04984C54.777 1.74973 54.651 2.35753 54.5609 2.92849C54.5069 3.29686 54.4709 3.59155 54.4709 3.79415L54.1828 3.75731C54.2008 2.8364 54.0747 2.15493 53.8046 1.74973C53.5345 1.34453 53.1024 1.06826 52.5081 0.976165L52.0039 0.902492C51.6438 0.847237 51.3917 0.865656 51.2836 0.957747C51.1576 1.04984 51.0676 1.28927 51.0135 1.67606L50.5454 4.82557L50.9415 4.88082C51.1396 4.91766 51.3197 4.89924 51.4817 4.84399C51.6438 4.78873 51.7878 4.71506 51.9139 4.62297C52.0399 4.53088 52.148 4.40195 52.256 4.27302C52.3641 4.12568 52.4361 3.99675 52.5081 3.8494C52.5802 3.72048 52.6342 3.57313 52.6882 3.42579L52.9763 3.46262C52.8863 3.88624 52.8142 4.27302 52.7602 4.65981C52.7422 4.7519 52.7242 4.84399 52.7062 4.99133C52.6882 5.12026 52.6702 5.21235 52.6702 5.28602C52.5982 5.70964 52.5441 6.31744 52.4721 7.10943L52.184 7.07259C52.184 5.93066 51.7698 5.28602 50.9235 5.13868L50.5274 5.08342L49.9871 8.28819C49.9331 8.67497 49.9331 8.93283 50.0232 9.06176C50.1132 9.19068 50.3293 9.28277 50.7074 9.33803L51.3197 9.43012C51.9139 9.52221 52.4181 9.39328 52.8322 9.04334C53.2464 8.69339 53.6246 8.03034 53.9127 7.07259L54.2008 7.10943C54.1287 7.3857 54.0747 7.73565 54.0027 8.17768C53.8947 8.87757 53.8226 9.52221 53.8046 10.13C53.2464 10.0195 52.292 9.85374 50.9595 9.65114C49.1588 9.33803 47.8083 9.13543 46.908 9.02492Z" fill="white"/>
<path d="M54.8853 10.3327L54.9753 10.0932C55.3714 10.1853 55.6596 10.1485 55.8396 9.98272C56.0197 9.81696 56.2358 9.43017 56.4339 8.84079L58.3966 3.389C58.4866 3.16799 58.5407 2.9838 58.5587 2.85488C58.5767 2.72595 58.5767 2.59702 58.5407 2.50493C58.5047 2.41284 58.4326 2.32075 58.3246 2.24708C58.2345 2.1734 58.0725 2.09973 57.8924 2.02606L57.9825 1.78662C58.2165 1.89713 58.5587 2.04448 58.9908 2.21024C59.387 2.35759 59.7471 2.48651 60.0172 2.56019L62.5022 10.0564L63.8707 6.26224C63.9788 5.96755 64.0508 5.74653 64.1048 5.56235C64.1588 5.39659 64.1768 5.23082 64.1949 5.06506C64.2129 4.8993 64.1768 4.77037 64.1228 4.67828C64.0508 4.56777 63.9608 4.47568 63.8527 4.38359C63.7267 4.2915 63.5646 4.19941 63.3665 4.0889L63.4566 3.84946C63.7627 3.99681 64.1768 4.16257 64.7171 4.36517C65.1492 4.53093 65.4914 4.64144 65.7615 4.71512L65.6714 4.95455C65.2753 4.86246 64.9872 4.8993 64.8071 5.06506C64.627 5.23082 64.4109 5.61761 64.2129 6.20699L61.7819 12.9665C61.7279 12.9481 61.6379 12.9112 61.4938 12.856C61.3498 12.8007 61.2417 12.7639 61.1697 12.7455L58.4326 4.16257L56.758 8.80396C56.6499 9.09865 56.5779 9.31967 56.5239 9.50385C56.4699 9.66961 56.4519 9.83537 56.4339 10.0011C56.4158 10.1669 56.4519 10.2958 56.5059 10.3879C56.5599 10.4984 56.6679 10.5905 56.776 10.6826C56.902 10.7747 57.0641 10.8668 57.2622 10.9773L57.1721 11.2167C56.884 11.0694 56.4519 10.9036 55.9117 10.701C55.4975 10.5168 55.1554 10.3879 54.8853 10.3327Z" fill="white"/>
<path d="M65.8153 9.89071C66.3015 9.08031 66.8957 8.47251 67.598 8.04889C68.2823 7.62527 69.0206 7.42267 69.7769 7.44109C70.5331 7.45951 71.2714 7.69895 71.9917 8.14098C72.4239 8.41726 72.748 8.71195 72.9641 9.02506C73.1802 9.33817 73.3782 9.70653 73.5223 10.1117C73.5583 10.2222 73.6123 10.2959 73.6664 10.3327C73.8104 10.4248 74.0265 10.2591 74.3506 9.85388L74.6027 10.0196C74.2606 10.4985 73.7204 11.3642 72.9461 12.635L72.694 12.4693C72.9641 11.8799 73.1261 11.4194 73.1982 11.0695C73.2702 10.7195 73.2342 10.3512 73.1081 9.96439C72.9641 9.375 72.622 8.89613 72.0817 8.5646C71.7216 8.32517 71.3254 8.21466 70.9113 8.25149C70.4971 8.26991 70.101 8.41726 69.7228 8.67511C69.3447 8.93297 68.9665 9.24608 68.6244 9.63286C68.2823 10.0196 67.9582 10.4617 67.634 10.959C67.3279 11.4563 67.0758 11.9536 66.8957 12.4508C66.7157 12.9481 66.5896 13.427 66.5536 13.8875C66.5176 14.3479 66.5716 14.7715 66.7157 15.1583C66.8597 15.5451 67.1478 15.8582 67.508 16.0976C67.7601 16.245 68.0122 16.3555 68.3183 16.4292C68.6064 16.4844 68.8945 16.4844 69.1646 16.4292C69.5608 16.3923 69.8849 16.245 70.191 16.0056C70.4791 15.7661 70.8393 15.3609 71.2534 14.8268L71.5055 14.9926C70.6952 16.3187 70.155 17.2396 69.8669 17.7737L69.6148 17.6079C69.7408 17.3685 69.7949 17.1843 69.8309 17.0554C69.8489 16.9265 69.8309 16.8344 69.7588 16.7975C69.7048 16.7607 69.6148 16.7423 69.4707 16.7423C69.0026 16.7607 68.5884 16.7423 68.2283 16.687C67.8681 16.6134 67.472 16.4476 67.0578 16.1897C66.3195 15.7293 65.7793 15.1583 65.4192 14.4953C65.059 13.8322 64.915 13.1139 64.987 12.3219C65.023 11.5299 65.3111 10.7195 65.8153 9.89071Z" fill="white"/>
<path d="M70.9294 18.6393L71.1095 18.4552C71.2716 18.6025 71.3976 18.6946 71.5057 18.7499C71.5957 18.8051 71.7037 18.8235 71.8298 18.8235C71.9378 18.8235 72.0459 18.7683 72.1539 18.6946C72.262 18.6209 72.388 18.492 72.5501 18.3078L76.8357 13.648C76.9978 13.4638 77.1238 13.3349 77.1959 13.2244C77.2679 13.1139 77.3039 13.0034 77.3039 12.8929C77.3039 12.7824 77.2679 12.6718 77.2139 12.5798C77.1598 12.4877 77.0518 12.3587 76.8897 12.193L77.0698 12.0088C77.7181 12.6718 78.7084 13.6296 80.041 14.9189C80.9413 15.7845 81.5896 16.3923 81.9857 16.7423C81.4635 17.2211 81.0133 17.6632 80.6532 18.0684C80.4011 18.3447 80.221 18.5657 80.095 18.7314L79.8789 18.5288C80.4011 17.7737 80.6712 17.1475 80.6712 16.6502C80.6892 16.1529 80.4731 15.6924 80.023 15.2688L79.6448 14.9004C79.3747 14.6426 79.1586 14.5137 79.0146 14.5137C78.8705 14.5137 78.6544 14.661 78.3843 14.9557L76.2415 17.2764L76.5296 17.5527C76.6737 17.6816 76.8177 17.7921 76.9978 17.8474C77.1599 17.9026 77.3219 17.921 77.466 17.921C77.61 17.921 77.7721 17.8842 77.9341 17.8289C78.0962 17.7737 78.2403 17.7 78.3663 17.6263C78.4924 17.5527 78.6184 17.479 78.7445 17.3685L78.9605 17.5711C78.6544 17.8658 78.3663 18.1421 78.1142 18.4183C78.0602 18.4736 77.9882 18.5657 77.8981 18.6578C77.8081 18.7499 77.7541 18.8235 77.7001 18.8788C77.4119 19.1919 77.0158 19.6523 76.5296 20.2601L76.3135 20.0575C76.9618 19.1182 76.9618 18.3447 76.3315 17.7369L76.0434 17.4606L73.8646 19.8181C73.5945 20.1128 73.4684 20.3338 73.4684 20.4812C73.4684 20.6285 73.6125 20.8311 73.8826 21.089L74.3328 21.531C74.7649 21.9546 75.2511 22.1388 75.8093 22.0835C76.3495 22.0283 77.0158 21.6968 77.7901 21.089L78.0062 21.2916C77.8081 21.4757 77.556 21.7336 77.2499 22.0467C76.7817 22.5624 76.3675 23.0597 76.0074 23.5386C75.6113 23.115 74.909 22.4335 73.9366 21.4942C72.6041 20.2233 71.6137 19.2656 70.9294 18.6393Z" fill="white"/>
<path d="M58.8107 41.3671L43.991 25.3432L29.2433 41.2197L28.7571 40.7593L43.991 24.3486L59.2969 40.9066L58.8107 41.3671Z" fill="white"/>
<path d="M29.7115 35.0129L29.2253 34.5341L43.991 18.6392L58.6847 34.5156L58.1985 34.9945L43.991 19.6337L29.7115 35.0129Z" fill="white"/>
<path d="M32.5747 37.4995H31.9084V64.0033H32.5747V37.4995Z" fill="white"/>
<path d="M36.1221 27.9956H35.4558V64.0032H36.1221V27.9956Z" fill="white"/>
<path d="M29.0632 64.0034H28.397V51.9394L32.0164 48.6426L32.4665 49.1399L29.0632 52.2525V64.0034Z" fill="white"/>
<path d="M56.0376 37.5176H55.3713V64.0214H56.0376V37.5176Z" fill="white"/>
<path d="M52.4902 27.9956H51.824V64.0032H52.4902V27.9956Z" fill="white"/>
<path d="M59.5671 64.0034H58.8829V52.2525L55.4976 49.1399L55.9477 48.6426L59.5671 51.9394V64.0034Z" fill="white"/>
<path d="M66.1576 68.0918H23.5352V68.7733H66.1576V68.0918Z" fill="white"/>
<path d="M62.6462 68.7737H25.3718V63.6719H62.6462V68.7737ZM26.0561 68.0922H61.98V64.3533H26.0561V68.0922Z" fill="white"/>
<path d="M8.82341 59.1407L6.19439 61.8297L6.50051 68.7734H12.839L10.8762 65.4213H9.47166V63.5979L14.3335 59.7117L14.3696 59.5827C14.1535 58.5145 14.2615 57.4094 14.6757 56.4148C15.414 57.3173 17.1246 59.7853 15.8101 63.0453L15.7201 63.2295L20.3118 68.8655H25.5519L23.4991 65.7344H21.8785L20.0057 63.2848C20.582 62.5296 22.3286 59.9695 22.2746 57.2068L25.858 60.651H29.0272L29.0452 54.6467L27.0825 56.1017H26.4522L23.6611 53.2284V47.0768L29.8195 40.7777V33.963L26.7223 36.9099V38.1071L23.355 41.6802L22.6528 40.7409V36.9652L22.4367 36.8731C22.1125 36.7257 21.8604 36.431 21.7704 36.0627C22.1846 35.8417 22.6347 35.7312 23.0849 35.7127H23.211L23.301 35.6206C24.0933 34.9944 24.2554 33.2447 24.2554 33.2447L24.2914 32.9316L23.9853 32.8948C23.9853 32.8948 22.5447 32.5816 21.5723 32.3606C20.69 32.1212 19.0694 30.7767 19.0694 30.7767L18.9793 30.6846H12.3348L11.2003 32.287V41.4408L12.0827 42.3249C12.3528 44.5166 12.3528 46.4321 11.9026 48.2187C11.4164 50.0421 10.48 51.6997 9.18355 53.0443L0.774299 42.7301C0.972376 42.1775 1.51258 41.8092 2.08881 41.8276L8.48128 49.3238L8.69736 48.8265C8.69736 48.8265 9.70575 46.7821 8.33722 44.1299V44.093L3.58338 38.365V36.7626L0.954369 33.4657L0.774299 36.0995L2.08881 37.6282L7.761 44.3877C8.33722 45.4375 8.51729 46.6716 8.24719 47.8503L2.39493 40.9067H2.21486C0.288111 40.9067 0.0360139 42.5091 0.0360139 42.5091L0 42.6932C2.93513 46.3216 5.90628 49.9868 8.84142 53.5968L8.82341 59.1407ZM14.7477 31.3108L16.0262 32.9684C14.2255 32.7842 13.5232 31.8449 13.2711 31.3108H14.7477ZM20.672 35.9522C20.3659 36.2837 20.1138 36.6521 19.9337 37.0757L15.558 31.3108H18.7993C19.1414 31.6239 20.6 32.6922 21.4283 32.9684C22.1306 33.0974 23.0489 33.3368 23.5351 33.4105C23.4451 33.8157 23.265 34.5708 22.9229 34.9392C22.5087 34.976 21.4283 35.1049 20.672 35.9522ZM21.9145 39.7095L20.4199 37.7019C20.6 37.223 20.8701 36.781 21.2122 36.4126C21.3382 36.781 21.5903 37.0941 21.9145 37.3151V39.7095ZM22.9049 44.8482L12.0106 32.158L12.5328 31.5318C12.875 32.287 13.8834 33.6315 16.5124 33.7236L19.7536 37.9782L22.9049 42.2696V44.8482ZM22.9589 48.2371L11.8666 36.3942V33.0053C15.576 37.2967 19.2494 41.5881 22.9589 45.8796V48.2371ZM22.9589 52.418L11.8666 41.054V37.3888C15.576 41.3671 19.2494 45.2902 22.9589 49.2317V52.418ZM23.6431 45.9717V42.2696L27.4066 38.2913V37.0573L29.2613 35.2707V40.262L23.6431 45.9717ZM14.9998 55.6781C16.1883 54.0204 18.2771 53.7994 18.8533 53.7626L21.5723 56.3964C22.0945 59.6564 19.3395 62.9533 19.3395 62.9164L19.1594 63.1374L21.5723 66.3054H23.1569L24.2914 67.9998H20.618L16.5124 62.9533V62.9348C17.8809 59.1775 15.7381 56.4148 14.9998 55.6781ZM9.56169 59.4538V53.6521C11.1823 51.9023 12.1007 50.2263 12.5869 48.3292C12.965 46.5979 13.055 44.8113 12.839 43.0616L23.0309 53.4679L23.6431 54.0941C24.4715 54.9966 25.2998 55.8438 26.1281 56.6911H27.3166L28.451 55.8807V59.859H26.1281L19.0874 53.0995H18.9613C18.9613 53.0995 12.875 53.0995 13.6313 59.4354L8.85942 63.2664V66.1212H10.5701L11.7045 68.0367H7.2388L6.9867 62.0876L9.56169 59.4538Z" fill="white"/>
<path d="M79.1406 53.6153C82.0758 50.0053 85.0469 46.3401 87.9821 42.7117L87.946 42.5276C87.946 42.5276 87.6759 40.9252 85.7672 40.9252H85.5871L79.7349 47.8688C79.4648 46.6901 79.6268 45.456 80.2211 44.4062L85.8933 37.6283L87.2078 36.0996L87.0277 33.4658L84.3987 36.7627V38.365L79.6268 44.0378V44.0747C78.2763 46.7085 79.2667 48.7713 79.2667 48.7713L79.4828 49.2686L85.8752 41.7724C86.4515 41.754 86.9917 42.1039 87.1898 42.6749L78.7805 52.9891C77.484 51.6446 76.5476 49.9869 76.0615 48.1635C75.6293 46.377 75.6293 44.4615 75.8814 42.2697L76.7637 41.3856V32.2318L75.6293 30.6294H68.9487L68.8587 30.7215C68.8587 30.7215 67.238 32.066 66.3557 32.3054C65.4013 32.5265 63.9428 32.8396 63.9428 32.8396L63.6367 32.8764L63.6727 33.1895C63.6727 33.1895 63.8527 34.9393 64.627 35.5655L64.7171 35.6576H64.8431C65.2933 35.676 65.7435 35.8049 66.1576 36.0075C66.0676 36.3575 65.8335 36.6706 65.4914 36.8179L65.2753 36.91V40.6857L64.573 41.6251L61.2057 38.0519V36.8363L58.1445 33.8894V40.7042L64.3029 47.0032V53.1549L61.5118 56.0281H60.8456L58.8828 54.5731L58.9008 60.5774H62.07L65.6534 57.1332C65.6174 59.8959 67.3641 62.4561 67.9223 63.2112L66.0676 65.6792H64.447L62.3942 68.8103H67.6342L72.226 63.1744L72.1359 62.9902C70.8214 59.7302 72.5321 57.2805 73.2704 56.3596C73.6845 57.3542 73.7926 58.4593 73.5765 59.5276L73.6125 59.6565L78.4744 63.5427V65.3661H77.0698L75.1071 68.7182H81.4455L81.7517 61.7746L79.1226 59.0855L79.1406 53.6153ZM74.7109 31.3109C74.4588 31.845 73.7566 32.7843 71.9559 32.9685L73.2344 31.3109H74.7109ZM65.0592 34.9393C64.7171 34.5893 64.537 33.8157 64.447 33.4105C64.9332 33.3185 65.8515 33.0974 66.5538 32.9685C67.3821 32.7107 68.8227 31.624 69.1828 31.3109H72.424L68.0484 37.0758C67.8503 36.6706 67.6162 36.2838 67.3101 35.9523C66.5358 35.105 65.4554 34.9761 65.0592 34.9393ZM66.0676 37.2968C66.3917 37.0942 66.6438 36.7811 66.7699 36.3943C67.112 36.7627 67.3821 37.2047 67.5622 37.6836L66.0676 39.6911V37.2968ZM65.0592 42.2513L68.2104 37.9598L71.4517 33.7052C74.0807 33.6131 75.0891 32.2686 75.4312 31.5135L75.9534 32.1397L65.0592 44.8298V42.2513ZM65.0052 45.8797C68.7326 41.5882 72.406 37.2968 76.0975 33.0053V36.3943L65.0052 48.2372V45.8797ZM65.0052 49.2318C68.7326 45.2903 72.406 41.3672 76.0975 37.3889V41.0541L65.0052 52.4181V49.2318ZM58.7027 40.2621V35.2708L60.5575 37.0573V38.2914L64.3209 42.2697V45.9718L58.7027 40.2621ZM71.4877 62.9533V62.9718L67.3821 68.0183H63.7087L64.8431 66.3239H66.4277L68.8407 63.1559L68.6606 62.9349C68.6606 62.9718 65.9055 59.6749 66.4277 56.4149L69.1468 53.7811C69.723 53.8179 71.8118 54.0573 73.0003 55.6966C72.226 56.4149 70.0831 59.1776 71.4877 62.9533ZM80.9774 62.1245L80.7253 68.0736H76.2595L77.394 66.1581H79.1046V63.3033L74.3328 59.4723C75.0711 53.1364 69.0027 53.1364 69.0027 53.1364H68.8767L61.8179 59.8591H59.4951V55.8807L60.6295 56.6911H61.8179C62.6463 55.8439 63.4746 54.9967 64.3029 54.0942L64.9151 53.468L75.1071 43.0617C74.891 44.8298 74.981 46.598 75.3592 48.3293C75.8454 50.2264 76.7637 51.9024 78.3843 53.6521V59.4539L80.9774 62.1245Z" fill="white"/>
<path d="M52.1662 42.7485H35.7979V43.43H52.1662V42.7485Z" fill="white"/>
<path d="M52.1662 45.6587H35.7979V46.3402H52.1662V45.6587Z" fill="white"/>
<path d="M44.3152 24.8462H43.6489V57.1701H44.3152V24.8462Z" fill="white"/>
<path d="M48.3667 46.0088H47.7004V63.7639H48.3667V46.0088Z" fill="white"/>
<path d="M39.9575 46.0088H39.2913V63.7639H39.9575V46.0088Z" fill="white"/>
</svg>
